<?xml version="1.0" encoding="UTF-8" standalone="no"?>
<!-- Created with Inkscape (http://www.inkscape.org/) -->

<svg
   xmlns:dc="http://purl.org/dc/elements/1.1/"
   xmlns:cc="http://creativecommons.org/ns#"
   xmlns:rdf="http://www.w3.org/1999/02/22-rdf-syntax-ns#"
   xmlns:svg="http://www.w3.org/2000/svg"
   xmlns="http://www.w3.org/2000/svg"
   xmlns:sodipodi="http://sodipodi.sourceforge.net/DTD/sodipodi-0.dtd"
   xmlns:inkscape="http://www.inkscape.org/namespaces/inkscape"
   width="371.06573mm"
   height="191.01111mm"
   viewBox="0 0 1314.7998 676.81101"
   id="svg2"
   version="1.1"
   inkscape:version="0.91 r"
   sodipodi:docname="biologicalneuron.svg">
  <defs
     id="defs4">
    <marker
       inkscape:isstock="true"
       style="overflow:visible"
       id="marker5154"
       refX="0"
       refY="0"
       orient="auto"
       inkscape:stockid="Arrow1Send">
      <path
         transform="matrix(-0.2,0,0,-0.2,-1.2,0)"
         style="fill:#231313;fill-opacity:0.93081761;fill-rule:evenodd;stroke:#000000;stroke-width:1pt;stroke-opacity:1"
         d="M 0,0 5,-5 -12.5,0 5,5 0,0 Z"
         id="path5156"
         inkscape:connector-curvature="0" />
    </marker>
    <marker
       inkscape:stockid="Arrow1Send"
       orient="auto"
       refY="0"
       refX="0"
       id="Arrow1Send"
       style="overflow:visible"
       inkscape:isstock="true"
       inkscape:collect="always">
      <path
         id="path4663"
         d="M 0,0 5,-5 -12.5,0 5,5 0,0 Z"
         style="fill:#231313;fill-opacity:0.93081761;fill-rule:evenodd;stroke:#000000;stroke-width:1pt;stroke-opacity:1"
         transform="matrix(-0.2,0,0,-0.2,-1.2,0)"
         inkscape:connector-curvature="0" />
    </marker>
    <marker
       inkscape:isstock="true"
       style="overflow:visible"
       id="marker5062"
       refX="0"
       refY="0"
       orient="auto"
       inkscape:stockid="Arrow1Mend">
      <path
         transform="matrix(-0.4,0,0,-0.4,-4,0)"
         style="fill:#000000;fill-opacity:1;fill-rule:evenodd;stroke:#000000;stroke-width:1pt;stroke-opacity:1"
         d="M 0,0 5,-5 -12.5,0 5,5 0,0 Z"
         id="path5064"
         inkscape:connector-curvature="0" />
    </marker>
    <marker
       inkscape:stockid="Arrow1Mend"
       orient="auto"
       refY="0"
       refX="0"
       id="marker4982"
       style="overflow:visible"
       inkscape:isstock="true"
       inkscape:collect="always">
      <path
         id="path4984"
         d="M 0,0 5,-5 -12.5,0 5,5 0,0 Z"
         style="fill:#000000;fill-opacity:1;fill-rule:evenodd;stroke:#000000;stroke-width:1pt;stroke-opacity:1"
         transform="matrix(-0.4,0,0,-0.4,-4,0)"
         inkscape:connector-curvature="0" />
    </marker>
    <marker
       inkscape:isstock="true"
       style="overflow:visible"
       id="marker4930"
       refX="0"
       refY="0"
       orient="auto"
       inkscape:stockid="Arrow1Mend"
       inkscape:collect="always">
      <path
         transform="matrix(-0.4,0,0,-0.4,-4,0)"
         style="fill:#000000;fill-opacity:1;fill-rule:evenodd;stroke:#000000;stroke-width:1pt;stroke-opacity:1"
         d="M 0,0 5,-5 -12.5,0 5,5 0,0 Z"
         id="path4932"
         inkscape:connector-curvature="0" />
    </marker>
    <marker
       inkscape:stockid="Arrow1Mend"
       orient="auto"
       refY="0"
       refX="0"
       id="Arrow1Mend"
       style="overflow:visible"
       inkscape:isstock="true"
       inkscape:collect="always">
      <path
         id="path4657"
         d="M 0,0 5,-5 -12.5,0 5,5 0,0 Z"
         style="fill:#000000;fill-opacity:1;fill-rule:evenodd;stroke:#000000;stroke-width:1pt;stroke-opacity:1"
         transform="matrix(-0.4,0,0,-0.4,-4,0)"
         inkscape:connector-curvature="0" />
    </marker>
    <inkscape:path-effect
       effect="spiro"
       id="path-effect4610"
       is_visible="true" />
    <inkscape:path-effect
       effect="spiro"
       id="path-effect4588"
       is_visible="true" />
    <style
       id="style3676"
       type="text/css">
		#Lines {
			stroke: #000000;
			stroke-width: 2;
			stroke-linecap: round;
		}
		#Cell {
			stroke: #000000;
			stroke-width: 2;
			fill-opacity: 1;
		}
		#Cell_Body {
			fill: #a88fd1;
		}
		#Cell_Body_Nucleus {
			fill: #2d7132;
		}
		#Small_Cell {
			fill: #f4cc4b;
		}
		#Small_Cell_Nucleus {
			fill: #d79b9b;
		}
	</style>
  </defs>
  <sodipodi:namedview
     id="base"
     pagecolor="#ffffff"
     bordercolor="#666666"
     borderopacity="1.0"
     inkscape:pageopacity="0.0"
     inkscape:pageshadow="2"
     inkscape:zoom="0.49497475"
     inkscape:cx="594.54819"
     inkscape:cy="134.03405"
     inkscape:document-units="px"
     inkscape:current-layer="Cell_Body"
     showgrid="false"
     fit-margin-top="0"
     fit-margin-left="0"
     fit-margin-right="0"
     fit-margin-bottom="0"
     inkscape:window-width="1366"
     inkscape:window-height="744"
     inkscape:window-x="0"
     inkscape:window-y="24"
     inkscape:window-maximized="1" />
  <metadata
     id="metadata7">
    <rdf:RDF>
      <cc:Work
         rdf:about="">
        <dc:format>image/svg+xml</dc:format>
        <dc:type
           rdf:resource="http://purl.org/dc/dcmitype/StillImage" />
        <dc:title></dc:title>
      </cc:Work>
    </rdf:RDF>
  </metadata>
  <g
     inkscape:label="Layer 1"
     inkscape:groupmode="layer"
     id="layer1"
     transform="translate(188.0032,114.59473)">
    <g
       id="g3719"
       transform="translate(-105.99398,-127.01118)">
      <g
         id="Cell"
         style="fill-opacity:1;stroke:#000000;stroke-width:2">
        <g
           id="Cell_Body"
           style="fill:#a88fd1">
          <path
             id="path3682"
             d="m 206.10019,562.12434 9.15955,-26.50534 c -10.51421,4.83421 -27.28139,21.72124 -37.92788,19.61846 17.6415,-14.68138 34.76421,-27.05882 45.25952,-51.8195 13.4532,-27.60799 7.45818,-39.6122 -17.22962,-37.91724 -23.27537,1.59799 -47.03719,19.66233 -46.09678,60.0172 0.37993,16.30314 -5.41737,24.29246 -5.83139,7.43195 -0.13461,-5.48195 -3.76506,-5.13328 -7.70584,-1.93448 -12.8434,10.96517 13.4041,-45.58961 11.04747,-54.00791 -10.0857,3.25724 -34.1671,59.65839 -38.5198,53.26042 2.04742,-14.12157 0.25958,-18.55586 -8.72538,-2.00634 -3.03536,5.59086 -12.149223,18.29181 -14.250423,15.62944 7.329613,-18.97188 21.196723,-35.17271 28.571583,-54.25907 0,-0.93787 -7.32675,1.57547 -16.28167,5.58517 -18.658408,8.35464 -29.102304,7.48607 -20.590964,-1.71247 5.097827,-5.5094 60.166844,-28.78842 95.508254,-40.37368 29.65528,-9.72128 35.41948,-13.36886 35.34439,-22.36588 -0.0733,-8.78132 -6.99049,-17.06972 -17.7263,-24.6791 -14.96231,-10.60505 -38.92235,-1.94276 -61.31584,26.06834 -7.76558,8.95175 -11.8845,22.32535 -24.77187,22.6667 1.55876,-4.05277 -0.0326,-13.2119 8.29321,-20.05803 4.05261,-3.33238 8.9924,-10.77915 11.64765,-15.80116 4.78107,-9.04267 7.99466,-13.11281 7.99466,-13.11281 0,0 -51.473867,9.5788 -51.528938,9.69812 12.784208,-7.09789 13.277368,-6.18656 6.58278,-18.68519 -5.641419,-12.47346 -6.054443,-17.30768 -4.628489,-54.17443 1.557696,-40.27299 6.056125,-55.35828 6.056125,-55.35828 1.064084,8.74669 4.710682,17.77651 11.228742,0.14587 0,0 -1.26066,1.22308 -3.4372,34.74652 -2.59029,39.89596 6.69203,65.80891 20.9806,67.64361 7.43359,0.95449 39.51224,0.77143 41.9285,-2.43461 -4.23792,-11.04197 -25.2457,-10.84245 -34.23508,-17.25976 -0.0558,-1.26593 5.76518,-1.66478 11.94726,-3.47632 10.05999,-2.94792 12.11977,-0.91634 25.64545,5.78724 28.41708,16.44721 16.7838,7.24213 16.39198,-11.87788 0,0 7.21142,8.46211 12.59044,13.596 15.91109,15.18602 23.58025,8.27456 22.2708,-16.89379 -0.91522,-17.59113 -4.92075,-39.92126 -25.46743,-65.00174 -11.90496,-14.53188 -9.44755,-21.60951 -20.49695,-23.87472 -27.81251,5.7201 -43.69053,-22.25643 -53.62315,-27.22191 -6.56887,0 -26.408412,-9.53626 -29.977829,-12.13619 -12.392718,-14.56281 24.053939,1.6087 29.659879,0.53476 -1.3655,-17.85061 -43.825565,-61.63272 -42.934502,-59.95147 11.939616,-3.83312 1.517981,-29.03796 1.660697,-36.34523 6.039415,7.53271 8.241863,5.72648 10.847846,-2.22515 -0.958071,29.17636 1.144563,45.27193 20.202669,63.55244 17.12317,19.75675 27.01277,52.96178 52.54681,60.04644 6.35988,2.05288 12.19671,2.33423 15.062,0.80864 5.64336,-3.00474 9.55451,-9.20036 -28.75399,-56.53963 -22.88712,-28.28247 -29.94427,-39.78243 -26.34149,-45.03571 5.29253,-1.00587 6.31039,1.3085 15.22618,11.35 l 11.12333,12.52776 1.47253,-9.65334 c 1.52105,-8.68641 0.32169,-30.75763 -8.16374,-43.42776 -4.85032,-7.24232 3.8959,-5.83154 8.47011,2.70705 l 4.14494,7.73728 2.01567,-8.97587 c 2.55656,-11.38449 5.23969,-19.89155 5.23969,-19.89155 -0.58216,11.04051 1.57917,14.97649 8.47424,9.30581 -0.58825,31.54194 -25.45781,59.26435 -1.76475,94.62583 l 6.19144,-10.2634 c 4.92093,-8.15731 8.14345,-16.57384 7.59407,-41.10875 -0.52226,-23.32384 4.53918,-42.97656 6.91139,-43.37193 1.61885,11.34349 -2.25468,26.22128 4.82999,37.26112 0.43504,-10.11579 8.33587,-26.49759 9.29183,-25.18314 0.73709,0 0.52922,7.60863 -9.71822,44.30407 -9.47499,33.92935 -6.34544,60.36647 1.88951,78.21518 5.73113,12.42184 10.9157,11.1314 12.02573,4.70575 0.68277,-3.95233 0.74081,-20.44431 0.12899,-36.64884 -1.09996,-29.13318 -0.92946,-34.04106 -0.92946,-34.04106 -0.40994,8.7453 15.20481,23.05148 30.07077,-14.23077 4.74118,-11.89039 13.77718,-24.24188 13.77718,-24.24188 -6.16716,17.32136 -6.39798,27.68267 -6.01177,30.91983 1.18441,0.79909 11.68121,-3.61174 17.03423,-7.6215 -0.0865,-0.13364 -33.9585,42.36228 -35.92407,57.72103 9.50964,8.10982 28.63918,-28.63812 28.63918,-28.63812 0.0929,-0.46465 2.4572,10.21891 2.22939,11.35796 0.65431,0.27957 12.74283,-9.58241 13.10542,-8.67613 0.82093,-0.84618 -11.07821,18.01899 -28.56239,31.1105 -28.41823,27.69031 -19.51495,62.23686 -9.24191,78.38253 6.9767,14.09569 35.11872,32.88772 46.19536,35.60677 17.66765,4.33698 19.65788,-21.02855 3.80785,-48.53147 -11.47017,-19.90303 -18.54356,-52.64068 -14.97862,-62.03821 3.33812,-8.79961 5.56444,1.25887 13.02355,8.91587 3.23357,3.31936 3.89187,-6.57438 2.70462,-25.99535 -1.59719,-26.12704 -3.50444,-32.71279 0.77739,-32.71279 2.65569,0 5.07851,5.04349 5.07851,6.62442 0,1.58093 2.78034,-0.14035 5.25307,-5.8e-4 3.59401,0.20314 0.017,22.52876 -1.28955,25.71744 -1.84595,4.50506 10.38161,-15.20065 14.00774,-24.91712 2.81794,-7.55086 4.09165,-26.08338 4.09165,-26.08338 -0.26907,0.4815 2.5962,18.46875 7.95126,15.9556 2.77786,-1.30366 1.82252,1.2042 3.43892,1.2042 1.6164,0 3.81392,-3.43734 3.81392,-9.93021 0,-8.95239 0.99688,-11.43106 4.12518,-10.25696 2.89621,1.08699 5.00677,-3.8848 9.58389,-15.85532 3.95629,-10.34688 5.59114,-22.88364 8.25145,-22.88364 4.89855,0 2.42936,17.34702 -5.57579,54.32219 -9.98521,46.12102 -6.19331,45.68987 12.99121,19.08326 6.83951,-9.48558 14.02013,-20.25171 16.38904,-20.25171 5.78767,0 -8.70151,26.73018 -8.70151,26.73018 0,0 7.92587,0.5413 11.47395,2.54434 2.19193,1.23744 -5.8897,8.55407 -25.95272,23.17558 -22.21131,16.18716 -21.5258,21.16244 -34.15122,68.2219 -15.16834,41.0017 29.49489,70.17829 61.79013,75.05155 43.09181,12.708 78.5422,23.95443 110.50191,33.41967 37.64565,11.14919 71.01235,20.77385 111.7988,21.92529 37.34666,1.05432 76.97284,-2.35046 112.79231,-13.80032 32.96277,-10.5367 62.70182,-27.1793 84.47406,-54.13663 36.3213,-44.97126 60.83967,-89.49681 60.83967,-89.49681 10.42143,-29.28989 27.27811,-55.71586 24.16208,-87.9319 -1.84051,-11.52196 -14.32393,-20.48389 -21.49321,-13.28918 -2.2659,2.27394 -7.27424,9.22331 -11.11732,9.22331 -9.16119,0 -13.10183,-7.09837 -4.0872,-13.01581 l 10.32488,-3.81033 c -4.66954,-15.71587 -26.59131,-11.81438 -14.26371,-24.64203 10.9587,-8.25589 19.46049,-6.0614 16.74362,3.64491 -1.17381,4.19352 5.12274,9.55759 16.42617,14.6598 15.33268,6.92094 16.33016,3.19706 16.9465,1.91129 0.94138,-1.96385 1.20097,-6.18229 3.74909,-8.25064 3.3539,-2.72239 9.42152,-3.08563 8.07174,-10.12264 -1.83683,-9.57626 -4.90202,-17.48536 4.67544,-16.58577 8.16702,0.7671 1.43107,11.07411 5.10959,14.93337 6.18452,6.48841 22.45952,-7.90525 26.60552,6.62193 -0.86854,4.30194 -2.45389,7.19487 -12.51502,5.4044 -10.07031,-1.7921 -18.18955,-0.91497 -24.28104,11.81893 -4.2911,8.97028 -11.27708,39.7811 -6.32528,37.8284 1.52998,-0.60333 19.41333,-10.39283 33.69109,-18.29748 29.74202,-16.46618 50.94539,-32.40752 49.59866,-44.96487 -0.63715,-5.94104 -0.12643,-13.27733 5.76122,-15.90105 13.3023,-5.9279 13.4226,-0.92628 10.99472,9.85609 -1.83871,8.16588 2.49458,7.96221 4.07908,8.2707 0.2398,1.43129 -17.97844,15.75121 -17.97844,15.75121 0,0 28.02184,-12.38916 28.02184,-6.15109 0,7.48812 -5.7145,10.54312 -25.78289,16.22891 -9.55621,2.70746 -24.68003,11.41291 -32.09607,16.53666 -17.3999,14.76428 -52.38504,19.80878 -58.71269,45.46372 -4.85089,10.31296 -8.00562,15.39071 -5.28028,17.08418 6.27488,3.89909 14.90889,5.31394 30.23432,-10.35374 8.24654,-8.43071 18.6501,-16.81933 23.11902,-18.64138 4.46893,-1.82205 9.60588,-6.58197 11.49267,-10.54121 4.5359,-9.51812 11.34341,-17.18611 11.09023,-4.7996 -0.15006,7.34162 3.88745,8.11539 12.12916,-1.79075 8.6294,-10.37213 15.29091,-4.79734 12.47575,8.52651 -1.53874,7.28272 -31.07996,9.16091 -31.87911,13.12425 0,2.52643 20.29643,2.56267 18.52289,3.57682 -12.73442,8.38544 -31.05275,4.4683 -40.21122,17.49055 l 23.11415,3.17079 c 8.82372,1.35502 18.83121,4.25041 22.23888,6.43419 3.40767,2.18379 15.99059,6.82354 27.96209,10.31055 19.9217,5.80273 33.4556,11.56869 33.859,16.91597 0.4349,5.76601 -38.2613,-6.9091 -61.36459,-16.4349 -4.65106,-1.9177 13.16121,11.80812 19.56379,21.32801 4.6898,6.97314 9.522,18.30594 9.7251,30.97964 0.3703,23.09753 5.3938,25.00762 19.535,29.35419 13.6724,4.20248 13.0029,13.11332 -0.9181,14.26094 -21.3486,-2.88954 -27.3931,-21.36522 -31.1862,-39.23452 -7.51434,6.89746 -21.92903,25.42839 -25.77056,14.10337 0,-2.98003 1.52009,-6.64138 5.53858,-9.21663 12.80478,-8.20586 20.05838,-18.02764 16.54345,-27.90257 -5.80284,-16.30263 -58.11256,-54.02162 -74.15676,-41.005 -3.3098,2.68524 4.57823,8.40132 9.20417,17.77449 7.46717,15.13007 7.74482,28.08875 5.74107,31.25972 -0.94666,1.49815 -9.51,1.35787 -9.38298,-2.43245 0.68989,-20.58605 -5.60284,-31.31159 -8.1861,-32.89696 -1.77429,-0.88714 -2.64718,11.42671 2.11032,40.11989 0.49433,2.98138 -1.55129,3.89398 -4.73752,3.89398 -8.33001,0 -11.37904,-4.39327 -8.65623,-12.30111 2.82323,-8.1995 -0.0597,-18.16889 -2.9348,-26.53804 -3.90222,-11.35915 -14.50433,-17.18589 -24.46651,-5.69772 -3.42162,3.82591 -6.61913,7.75079 -9.63322,11.73949 -25.26648,33.43653 -37.6431,71.35789 -61.09489,93.05976 -28.24525,26.13764 -57.79436,45.38731 -90.94878,56.63754 -35.29201,11.97558 -74.2686,15.88849 -118.85279,12.53035 -35.82994,-2.69875 -74.69585,-14.63263 -119.11068,-23.65079 L 378.51481,391.28522 c -25.08672,4.19365 -53.11343,29.31311 -54.72524,37.92606 -2.59082,13.84444 21.13857,25.59557 54.36085,33.21398 15.59905,6.18469 16.20771,8.18135 -0.81758,6.21272 l -16.08118,-0.73031 c 3.8988,8.58738 16.38387,12.48286 17.86552,17.82229 -10.76525,8.9836 -76.7878,-48.80052 -78.53318,-33.81678 -6.94573,32.46941 94.2912,80.03175 65.62442,78.35328 -6.10325,-1.09156 -13.34289,-2.80486 -15.4017,-3.10983 -5.88905,-0.87235 -12.65875,5.13876 -5.90693,13.47499 3.7428,4.62111 10.37941,12.33433 6.90107,14.14932 -17.2671,-7.74045 -21.22945,-35.34039 -39.31559,-41.95567 -7.61499,6.75803 -0.21313,24.23533 -8.04736,30.77921 -0.39896,-27.13664 -0.66067,-54.26924 -16.69001,-81.86559 l -16.67118,0 -20.56028,0 c 2.80394,17.07876 7.97601,82.31534 4.52538,75.61876 -5.04043,-9.78187 -9.86547,-20.31762 -13.96961,-33.37651 -8.61666,10.62045 -17.25442,47.47176 -17.89732,63.26132 -3.23268,-12.44911 -6.80512,-15.87207 -17.0747,-5.11812 z M 313.64481,267.34063 c 11.79033,-22.94295 15.59285,-68.76616 12.85507,-77.58094 -2.82313,-9.08959 -46.22661,72.0161 -36.06646,84.77974 5.49597,6.90429 12.29168,19.208 15.69586,15.69517 1.27813,-1.31892 4.04137,-11.82746 7.51553,-22.89397 z"
             inkscape:connector-curvature="0"
             style="fill:#000000;fill-opacity:0.23899369" />
          <path
             id="Cell_Body_Nucleus"
             d="m 266.25,388.46252 c -8.25762,-4.41371 -14.25,0.55102 -14.25,8.75 0,9.80419 29.85389,42.39612 37.75,34.5 15.63549,-15.63549 -6.30338,-38.51334 -23.5,-43.25 z"
             inkscape:connector-curvature="0"
             style="fill:#030d05;fill-opacity:0.98113209" />
          <path
             style="fill:#231313;fill-opacity:0.86163522;fill-rule:evenodd;stroke:#000000;stroke-width:2;stroke-linecap:butt;stroke-linejoin:miter;stroke-miterlimit:4;stroke-dasharray:none;stroke-opacity:1"
             d="m 101.44829,164.17008 c 0,-3.19882 0,-6.39764 0,-9.59645 0,-0.33672 0,-0.67344 0,-1.01016 0,-0.33671 -0.0817,-0.68348 0,-1.01015 0.0913,-0.36522 0.41377,-0.64493 0.50508,-1.01015 0.0817,-0.32667 0,-0.67344 0,-1.01015 0,-1.34687 0,-2.69374 0,-4.04061 0,-0.50508 -0.1225,-1.02524 0,-1.51523 0.0577,-0.23099 0.373,-0.30697 0.50508,-0.50508 0.20882,-0.31323 0.41377,-0.64493 0.50507,-1.01015 0.20417,-0.81666 -0.13839,-1.69504 0,-2.52538 0.0875,-0.52516 0.37595,-0.99873 0.50508,-1.51523 0.0408,-0.16333 0,-0.33672 0,-0.50508 0,-0.33672 0,-0.67343 0,-1.01015 0,-1.01015 0,-2.02031 0,-3.03046 0,-0.50507 0,-1.01015 0,-1.51523 0,-0.50507 0.1225,-1.02523 0,-1.51523 -0.0577,-0.23098 -0.42979,-0.27919 -0.50508,-0.50507 -0.10648,-0.31944 0.18678,-0.72999 0,-1.01015 -0.20882,-0.31324 -0.74395,-0.23888 -1.01015,-0.50508 -0.11905,-0.11905 0,-0.33672 0,-0.50508 -0.33672,0 -0.69071,0.10648 -1.01015,0 -0.22588,-0.0753 -0.33672,-0.33671 -0.50508,-0.50507 -0.505075,-0.50508 -1.010152,-1.01016 -1.515228,-1.51523 -0.168359,-0.16836 -0.373005,-0.30697 -0.505076,-0.50508 -0.176798,-0.2652 -0.513843,-1.34979 -1.010153,-1.51523 -0.479157,-0.15972 -1.010152,0 -1.515228,0 -0.168359,0 -0.411688,0.14009 -0.505077,0 -0.295321,-0.44298 -0.08934,-1.18264 -0.505076,-1.51523 -0.542049,-0.43363 -1.361766,-0.28556 -2.020305,-0.50507 -3.658478,-1.21949 0.796307,0.14561 -1.515229,-1.01015 -0.150585,-0.0753 -0.336717,0 -0.505076,0 -0.168359,0 -0.336718,0 -0.505076,0 -0.673435,0 -1.346871,0 -2.020306,0 -1.950608,0 -1.727912,-0.34557 -3.535533,1.01015 -0.190477,0.14286 -0.398597,0.29212 -0.505077,0.50507 -2.299251,4.59851 1.155608,-0.65053 -1.515229,2.02031 -0.07838,0.0784 0.06551,1.31869 0,1.51523 -0.119047,0.35714 -0.41377,0.64493 -0.505076,1.01015 -0.08167,0.32666 0.150585,0.70898 0,1.01015 -0.212959,0.42592 -0.712679,0.63831 -1.010152,1.01016 -0.758413,0.94801 -1.261893,2.08244 -2.020305,3.03045 -0.297474,0.37185 -0.724439,0.6292 -1.010153,1.01016 -1.530928,2.04123 -0.07997,0.23992 -0.505076,1.51522 -0.119048,0.35715 -0.336718,0.67344 -0.505077,1.01016 -0.168358,0.33671 -0.279199,0.70898 -0.505076,1.01015 -0.285714,0.38095 -0.797194,0.58423 -1.010152,1.01015 -0.45352,0.90704 0.657635,1.24517 -0.505077,2.02031 -0.280166,0.18677 -0.708983,-0.15059 -1.010152,0 -0.150585,0.0753 0.119047,0.38603 0,0.50507 -0.266199,0.2662 -0.841794,0.16836 -1.010153,0.50508 0,4.71404 0.505077,0.50508 -0.505076,1.51523 -0.119048,0.11905 0,0.33672 0,0.50507 0,0.16836 0,0.33672 0,0.50508 0,0.67344 0,1.34687 0,2.02031 0,0.33671 0.106479,0.69071 0,1.01015 -0.07529,0.22588 -0.398597,0.29212 -0.505076,0.50507 -0.07678,0.15357 0,1.67154 0,2.02031 0,0.52524 -0.09933,2.63316 0,3.03046 0.09131,0.36522 0.413771,0.64493 0.505076,1.01015 0.08167,0.32666 -0.106479,0.69071 0,1.01015 0.07529,0.22588 0.429784,0.2792 0.505076,0.50508 0.10648,0.31944 -0.150584,0.70898 0,1.01015 0.07529,0.15059 0.354492,-0.0753 0.505077,0 0.212958,0.10648 0.398596,0.29212 0.505076,0.50508 0.150584,0.30117 -0.10648,0.69071 0,1.01015 0.119047,0.35714 0.386028,0.65301 0.505076,1.01015 0.05324,0.15972 -0.07529,0.35449 0,0.50508 0.10648,0.21296 0.373005,0.30697 0.505076,0.50508 0.208824,0.31323 0.296253,0.69691 0.505077,1.01015 0.132071,0.19811 0.429784,0.2792 0.505076,0.50507 0.106479,0.31944 -0.05536,0.67802 0,1.01016 0.114119,0.68471 0.390957,1.33559 0.505076,2.0203 0.05536,0.33214 -0.106479,0.69072 0,1.01015 0.07529,0.22588 0.398597,0.29212 0.505076,0.50508 0.07529,0.15059 0,0.33672 0,0.50508 0,0.67343 -0.212958,1.38143 0,2.0203 0.05324,0.15972 0.386029,-0.11905 0.505077,0 0.15484,0.15484 -0.156091,2.36929 0,2.52538 0.119047,0.11905 0.386028,-0.11904 0.505076,0 0.238095,0.2381 -0.336718,1.01016 0,1.01016 0.376462,0 0.841794,-0.8418 1.010153,-0.50508 0.238095,0.47619 -0.417551,0.99008 -0.505077,1.51523 0,4.83372 0.225877,-1.12939 -0.505076,2.52538 -0.09905,0.49527 0,1.01015 0,1.51523 0,0.50507 0,1.01015 0,1.51523 0,0.84179 -0.165089,1.69993 0,2.52538 0.247212,1.23606 1.434183,1.6462 2.020305,2.52538 0.06272,0.0941 0.977788,1.98794 1.010153,2.02031 0.266198,0.26619 0.743954,0.23887 1.010152,0.50507 0.266199,0.2662 0.296253,0.69692 0.505076,1.01015 0.264143,0.39622 0.724439,0.6292 1.010153,1.01016 0.364216,0.48562 0.630946,1.04122 1.010153,1.51523 0.297473,0.37184 0.833299,0.56802 1.010152,1.01015 0.187581,0.46895 -0.225877,1.06347 0,1.51523 0.168359,0.33671 0.65301,0.38603 1.010153,0.50507 0.159719,0.0532 0.429784,-0.15058 0.505076,0 0.150585,0.30117 -0.10648,0.69072 0,1.01016 0.339479,1.01843 0.827,-0.0222 1.515229,1.01015 0.544544,0.81682 1.028173,1.67303 1.515229,2.52538 0.186777,0.32686 0.296252,0.69692 0.505076,1.01015 0.132071,0.19811 0.398597,0.29212 0.505076,0.50508 0.07529,0.15058 -0.07529,0.35449 0,0.50507 0.212959,0.42592 0.74601,0.61394 1.010153,1.01016 0.208823,0.31323 0.296253,0.69691 0.505076,1.01015 0.264143,0.39621 0.797194,0.58424 1.010152,1.01015 0.150585,0.30117 -0.301169,0.85957 0,1.01016 0.30117,0.15058 0.708984,-0.15059 1.010153,0 0.0259,0.0129 0.04533,1.4699 0,1.51522 -0.238095,0.2381 -0.772057,-0.23809 -1.010153,0 -0.119047,0.11905 0.07529,0.3545 0,0.50508 -0.106479,0.21296 -0.336717,0.33672 -0.505076,0.50508 -0.168359,0.16836 -0.292117,0.39859 -0.505076,0.50507 -0.150585,0.0753 -0.354492,-0.0753 -0.505076,0 -0.212959,0.10648 -0.352652,0.32217 -0.505077,0.50508 -0.690133,0.82816 -1.373492,1.66296 -2.020305,2.52538 -3.756431,5.00858 0.834981,-0.99993 -1.515229,2.52538 0.05042,1.00059 -0.743954,0.23888 -1.010152,0.50508 -0.119048,0.11905 0.119048,0.38603 0,0.50508 -0.119048,0.11904 -0.354492,-0.0753 -0.505076,0 -0.212959,0.10647 -0.336718,0.33671 -0.505077,0.50507 -0.336717,0.33672 -0.724438,0.6292 -1.010152,1.01015 -0.451754,0.60234 -0.477756,1.48791 -1.010153,2.02031 -0.119047,0.11905 -0.345357,-0.0532 -0.505076,0 -0.357143,0.11905 -0.673435,0.33672 -1.010153,0.50508 -0.336717,0.16835 -0.801329,0.19184 -1.010152,0.50507 -0.186777,0.28017 0,0.67344 0,1.01015 0,0.50508 0.09905,1.01996 0,1.51523 -0.07383,0.36915 -0.365262,0.66062 -0.505076,1.01016 -2.033694,5.08423 0.394363,-1.07238 -0.505077,2.52538 -0.09131,0.36522 -0.336717,0.67343 -0.505076,1.01015 -0.168359,0.50508 -0.400665,0.99317 -0.505076,1.51523 -0.132072,0.66036 0,1.34687 0,2.0203 0,1.17851 0,2.35703 0,3.53554 0,0.50507 0,1.01015 0,1.51523 0,0.33671 -0.238095,0.77205 0,1.01015 0.694161,0.69416 1.83122,0.82107 2.525381,1.51523 0.376462,0.37646 0.164244,1.10623 0.505076,1.51523 0.662533,0.79503 2.408639,1.48901 3.030458,2.52538 0.273916,0.45652 0.209756,1.07224 0.505076,1.51523 0.05193,0.0779 1.827753,-0.14442 2.020305,0 1.107735,0.8308 1.23142,1.69681 2.525382,2.0203 0.326664,0.0817 0.690714,-0.10648 1.010152,0 0.225877,0.0753 0.2792,0.42978 0.505077,0.50508 0.319438,0.10648 0.690714,-0.10648 1.010152,0 0.225877,0.0753 0.292118,0.39859 0.505076,0.50507 0.150585,0.0753 0.354492,-0.0753 0.505077,0 0.212959,0.10648 0.336717,0.33672 0.505076,0.50508 0.168359,0.16836 0.398597,0.29212 0.505076,0.50508 0.07529,0.15058 -0.06253,0.34876 0,0.50507 -0.775825,1.72913 1.076203,1.64733 1.515229,2.52538 0.07686,0.15372 0,1.28777 0,1.51523 0,0.53466 0.212064,1.27618 -0.505076,1.51523 -0.319439,0.10648 -0.673435,0 -1.010153,0 -1.178511,0 -2.357022,0 -3.535534,0 -1.010152,0 -2.020305,0 -3.030457,0 -1.010153,0 -2.025319,0.10052 -3.030458,0 -0.690716,-0.0691 -1.339624,-0.36894 -2.020305,-0.50507 -1.004199,-0.20084 -2.012635,-0.39199 -3.030458,-0.50508 -0.501987,-0.0558 -1.015228,0.0714 -1.515228,0 -0.687185,-0.0982 -1.342675,-0.35449 -2.020306,-0.50508 -0.838022,-0.18622 -1.699947,-0.26924 -2.525381,-0.50507 -0.723954,-0.20685 -1.321233,-0.73053 -2.020305,-1.01016 -0.857819,-0.34312 -2.714515,-0.87331 -3.535534,-1.01015 -0.332136,-0.0554 -0.729987,0.18678 -1.010152,0 -0.313235,-0.20882 -0.238878,-0.74395 -0.505077,-1.01015 -0.119047,-0.11905 -0.354491,0.0753 -0.505076,0 -0.212959,-0.10648 -0.306969,-0.37301 -0.505076,-0.50508 -0.313235,-0.20882 -0.743954,-0.23888 -1.010153,-0.50507 -0.309396,-0.3094 -0.42998,-1.32184 -1.010152,-1.51523 -0.319439,-0.10648 -0.747221,0.21034 -1.010153,0 -0.65733,-0.52587 -0.976325,-1.37362 -1.515229,-2.02031 -0.331206,-0.39745 -2.880996,-2.91836 -3.030457,-3.03046 -1.250641,-0.93798 0.375876,2.77206 -1.515229,-1.01015 0,-2.8621 0.336717,-0.16836 -0.505076,-1.01015 -0.238096,-0.2381 0.20203,-0.74078 0,-1.01015 -0.428572,-0.57143 -1.147732,-0.90274 -1.515229,-1.51523 -0.17324,-0.28873 0.186777,-0.72999 0,-1.01015 -0.208824,-0.31324 -0.743954,-0.23888 -1.010153,-0.50508 -0.119047,-0.11905 0.09339,-0.36499 0,-0.50508 -0.264143,-0.39621 -0.746009,-0.61394 -1.010152,-1.01015 -0.05017,-0.0752 0,-1.34936 0,-1.51523 0,-0.84179 0,-1.68359 0,-2.52538 0,-0.67343 0.09524,-1.35364 0,-2.0203 -0.07529,-0.52705 -0.400665,-0.99317 -0.505077,-1.51523 -0.06603,-0.33018 0,-0.67344 0,-1.01016 0,-0.67343 0,-1.34687 0,-2.0203 0,-2.35702 0,-4.71405 0,-7.07107 0,-1.01015 0,-2.0203 0,-3.03046 0,-0.33671 0,-0.67343 0,-1.01015 0,-0.33672 -0.08167,-0.68349 0,-1.01015 0.09131,-0.36522 0.413771,-0.64493 0.505077,-1.01015 0.08167,-0.32667 0,-0.67344 0,-1.01016 0,-0.67343 0,-1.34687 0,-2.0203 0,-0.67344 0,-1.34687 0,-2.02031 0,-1.01015 0.198107,-2.03992 0,-3.03045 -0.147661,-0.73831 -0.730524,-1.32124 -1.010153,-2.02031 -0.06253,-0.15632 0.05324,-0.34536 0,-0.50508 -0.119048,-0.35714 -0.431246,-0.641 -0.505076,-1.01015 -0.09905,-0.49527 0,-1.01015 0,-1.51523 0,-0.16836 0.04083,-0.34174 0,-0.50507 -0.603574,-2.4143 -0.175203,-0.73868 -1.515229,-2.52538 -0.225877,-0.30117 -0.336718,-0.67344 -0.505076,-1.01016 -0.336718,-0.67343 -0.772058,-1.30602 -1.010153,-2.0203 -0.106479,-0.31944 0.150585,-0.70899 0,-1.01015 -0.212959,-0.42592 -0.765154,-0.60183 -1.010152,-1.01016 -0.273916,-0.45652 -0.266981,-1.03904 -0.505077,-1.51523 -0.212959,-0.42591 -0.797193,-0.58423 -1.010152,-1.01015 -0.07529,-0.15058 0.07529,-0.35449 0,-0.50508 -0.10648,-0.21295 -0.398597,-0.29211 -0.505076,-0.50507 -0.07529,-0.15059 0.119047,-0.38603 0,-0.50508 -0.119048,-0.11905 -0.451837,0.15972 -0.505077,0 -0.159719,-0.47915 -0.105828,-1.02136 0,-1.51523 0.402209,-1.87697 1.199651,-3.66237 1.515229,-5.55584 0.03914,-0.23485 -0.429784,-0.27919 -0.505076,-0.50507 -0.10648,-0.31944 0.06604,-0.67998 0,-1.01015 -0.272273,-1.36137 -0.601867,-2.71369 -1.010153,-4.04061 -0.26663,-0.86655 -0.69181,-1.67647 -1.010152,-2.52539 -0.186937,-0.49849 -0.295355,-1.02587 -0.505077,-1.51522 -0.501813,-1.1709 -1.299866,-2.24336 -1.515228,-3.53554 0,-4.83372 0.225877,1.12939 -0.505077,-2.52538 -0.09905,-0.49527 0,-1.01015 0,-1.51523 0,-0.33672 0.150585,-0.70898 0,-1.01015 -0.07529,-0.15059 -0.386028,0.11905 -0.505076,0 -0.119048,-0.11905 0.06253,-0.34876 0,-0.50508 -0.279629,-0.69907 -0.772057,-1.30602 -1.010152,-2.0203 -0.10648,-0.31944 0.150584,-0.70899 0,-1.01016 -0.212959,-0.42591 -0.797194,-0.58423 -1.010153,-1.01015 -0.150585,-0.30117 0.150585,-0.70898 0,-1.01015 -0.212959,-0.42592 -0.797194,-0.58424 -1.010153,-1.01015 -1.49348,-2.98696 1.820347,1.08026 -0.505076,-2.02031 -0.285714,-0.38095 -0.797194,-0.58423 -1.010152,-1.01015 -0.310439,-0.62088 -0.26134,-1.37034 -0.505077,-2.02031 -0.264369,-0.70498 -0.713561,-1.32825 -1.010152,-2.0203 -0.784727,-1.83103 -0.319361,-1.94784 -1.515229,-4.04061 -0.236257,-0.41345 -0.712679,-0.63831 -1.010153,-1.01015 -3.065363,-3.83171 0.725332,0.70381 -1.515228,-3.03046 -0.244998,-0.40833 -0.765155,-0.60182 -1.010153,-1.01015 -0.273916,-0.45653 -0.307349,-1.02091 -0.505076,-1.51523 -0.139815,-0.34954 -0.443187,-0.63882 -0.505076,-1.01016 -0.110713,-0.66427 0.185006,-1.37278 0,-2.0203 -0.166763,-0.58367 -0.673436,-1.01015 -1.010153,-1.51523 -0.738948,-1.10842 -1.593097,-2.25391 -2.020305,-3.53553 -0.10648,-0.31944 0,-0.67344 0,-1.01016 0,-0.67343 0.110712,-1.35603 0,-2.0203 -0.06189,-0.37134 -0.443186,-0.63881 -0.505076,-1.01015 -0.81772,-4.90632 1.215407,0.9669 -1.010153,-4.04061 -0.368221,-0.8285 -0.673435,-1.68359 -1.010152,-2.52538 -0.336718,-0.8418 -0.749632,-1.65698 -1.010153,-2.52539 -0.246678,-0.82226 -0.296868,-1.69254 -0.505076,-2.52538 -0.258251,-1.033 -0.80133,-1.98634 -1.010153,-3.03045 -0.06604,-0.33018 0.10648,-0.69072 0,-1.01016 -0.07529,-0.22587 -0.373005,-0.30697 -0.505076,-0.50507 -0.208823,-0.31324 -0.386029,-0.65301 -0.505076,-1.01016 -0.05324,-0.15972 0,-0.33671 0,-0.50507 -0.168359,-0.67344 -0.26134,-1.37034 -0.505077,-2.02031 -0.264369,-0.70498 -0.827542,-1.28986 -1.010152,-2.020303 -0.163332,-0.653328 0.185007,-1.372781 0,-2.020305 -1.986449,-6.95257 -0.220939,3.440988 -1.515229,-3.030458 -0.06604,-0.330179 0,-0.673435 0,-1.010152 0,-1.155768 0.106479,-1.30227 -0.505076,-2.525382 -0.757615,-1.515229 -0.505077,1.010153 -1.515229,-1.515229 -0.280598,-0.701494 0.187065,-1.77712 0,-2.525381 -0.182611,-0.730443 -0.862492,-1.282003 -1.010153,-2.020305 -0.227657,-1.138287 0.164369,-2.384956 0,-3.535534 -0.144827,-1.013794 -0.391985,-2.012635 -0.505076,-3.030458 -0.111871,-1.006836 0,-2.986314 0,-4.04061 0,-0.841794 0,-1.683587 0,-2.525381 0,-0.168359 0.119048,-0.386029 0,-0.505076 -0.119048,-0.119048 -0.386029,0.119047 -0.505076,0 -0.329744,-0.329744 -0.970704,-2.288688 -1.010153,-2.525382 -0.166068,-0.996408 0.142857,-2.030457 0,-3.030457 -0.09817,-0.687185 -0.406907,-1.333121 -0.505076,-2.020305 -0.07143,-0.5 0,-1.010153 0,-1.515229 0,-1.34687 0,-2.69374 0,-4.04061 0,-0.168359 0.119048,-0.386029 0,-0.505077 -0.343112,-0.343111 -1.004475,0.516431 -1.515229,-0.505076 -0.07529,-0.150585 0,-0.336718 0,-0.505076 0,-0.673435 0.09524,-1.353639 0,-2.020305 C 9.904663,53.189675 9.409449,52.318295 9.019336,51.538067 8.438967,50.37733 8.514259,50.904376 8.514259,50.022838 c 0,-0.168358 0,-0.336717 0,-0.505076 0,-0.168359 -0.168358,-0.505076 0,-0.505076 0.168359,0 0,0.336717 0,0.505076 0,1.010153 0,2.020305 0,3.030458 0,7.519949 -0.204165,-1.837485 0.505077,4.545686 1.019906,9.179153 -1.045201,-3.205699 0.505076,4.545687 0.03302,0.165089 -0.07529,0.354491 0,0.505076 0.106479,0.212959 0.673435,0.336717 0.505076,0.505076 -0.168359,0.168359 -0.673435,-0.673435 -0.505076,-0.505076 0.505076,0.505076 0.957465,1.069018 1.515229,1.515229 2.06238,1.649904 0.606925,0.403227 1.010152,0 0.119048,-0.119048 0.386029,0.119047 0.505077,0 0.119047,-0.119048 -0.119048,-0.386029 0,-0.505076 0.119047,-0.119048 0.386028,0.119047 0.505076,0 0.119047,-0.119048 -0.119048,-0.386029 0,-0.505077 0.119047,-0.119047 0.386028,0.119048 0.505076,0 0.266199,-0.266198 0.238878,-0.743954 0.505076,-1.010152 0.119048,-0.119048 0.386029,0.119047 0.505077,0 0.266198,-0.266199 0.336717,-0.673435 0.505076,-1.010153 0.673435,-0.673435 1.27662,-1.425357 2.020305,-2.020305 0.131466,-0.105173 0.386029,0.119048 0.505076,0 0.238095,-0.238095 -0.150584,-0.708983 0,-1.010152 0.10648,-0.212959 0.398597,-0.292118 0.505077,-0.505077 0.405461,-0.810923 0.60469,-1.714458 1.010152,-2.525381 0.770131,-1.540261 0.400406,0.923756 1.010153,-1.515229 0.08167,-0.326664 -0.08167,-0.683489 0,-1.010152 0.09131,-0.365222 0.386028,-0.65301 0.505076,-1.010153 0.05324,-0.159719 -0.05324,-0.345357 0,-0.505076 0.119047,-0.357143 0.386029,-0.65301 0.505076,-1.010153 0.05324,-0.159719 -0.04083,-0.341744 0,-0.505076 0.129125,-0.516501 0.375951,-0.998728 0.505076,-1.515229 0.04083,-0.163332 -0.07529,-0.354492 0,-0.505076 0.10648,-0.212959 0.398597,-0.292118 0.505077,-0.505076 0.07529,-0.150585 -0.168359,-0.505077 0,-0.505077 0.168358,0 0,0.336718 0,0.505077 0,1.010152 0,2.020305 0,3.030457 0,0.336718 -0.08167,0.683489 0,1.010153 0.09131,0.365221 0.386028,0.653009 0.505076,1.010152 0.05324,0.159719 0,0.336718 0,0.505077 0,0.336717 0,0.673435 0,1.010152 0,1.34687 0,2.69374 0,4.04061 0,0.336718 -0.08167,0.683489 0,1.010153 0.345416,1.381663 0.710208,0.812774 1.515229,2.020305 0.09339,0.140083 0,0.336717 0,0.505076 0,0.336718 0,0.673435 0,1.010153 0,1.010152 0,2.020305 0,3.030457 0,1.214029 -0.05324,-0.212959 0.505076,2.020305 0.224478,0.897914 -0.673435,0.673435 0,2.020306 0.168359,0.336717 0.801329,0.191841 1.010153,0.505076 0.186362,0.279543 -0.16773,1.684845 0,2.020305 -0.280013,1.250892 1.138767,1.267382 1.515228,2.020305 0.07529,0.150585 -0.05324,0.345357 0,0.505076 0.119048,0.357143 0.386029,0.65301 0.505077,1.010153 0.05324,0.159719 -0.119048,0.386028 0,0.505076 0.266198,0.266199 0.653009,0.386029 1.010152,0.505076 0.159719,0.05324 0.44255,-0.156317 0.505077,0 0.318825,0.797065 0.269237,1.699947 0.505076,2.525382 0.103422,0.361977 0.431246,0.641001 0.505076,1.010152 0.09905,0.495268 -0.09905,1.019961 0,1.515229 0.179509,0.897544 0.920066,1.425142 1.515229,2.020305 0.939565,0.939565 1.383157,1.251086 2.020305,2.525382 0.558316,1.116632 0.505076,1.159386 0.505076,2.020305 0,0.505076 -0.225877,1.063474 0,1.515228 0.07529,0.150585 0.354492,-0.07529 0.505077,0 0.212958,0.10648 0.398596,0.292118 0.505076,0.505077 0.133535,0.26707 -0.06152,1.774236 0,2.020305 0.18261,0.730443 0.827542,1.289862 1.010152,2.020305 0.163332,0.653328 -0.212959,1.381428 0,2.020305 0.525502,1.576505 0.336718,-0.168359 1.010153,0.505076 0.06187,0.06187 -0.04583,1.331897 0,1.515229 0.129125,0.516501 0.375951,0.998728 0.505076,1.515229 0.04083,0.163332 -0.05324,0.345357 0,0.505076 0.119048,0.357143 0.296253,0.696917 0.505076,1.010157 0.132072,0.1981 0.44733,0.27409 0.505077,0.50507 0.122499,0.49 -0.187581,1.04628 0,1.51523 0.176852,0.44213 0.8333,0.56802 1.010152,1.01015 0.187581,0.46896 -0.18758,1.04628 0,1.51523 0.176853,0.44213 0.797194,0.58424 1.010153,1.01016 0.07285,0.14569 0,2.70765 0,3.03045 0,2.02031 0,4.04061 0,6.06092 0,2.18866 0,4.37733 0,6.56599 0,0.67343 0,1.34687 0,2.0203 0,0.33672 -0.06604,0.67998 0,1.01016 0.104411,0.52206 0.375951,0.99872 0.505076,1.51523 0.04083,0.16333 -0.05324,0.34535 0,0.50507 0.222975,0.66893 0.90084,1.61071 1.515229,2.02031 0.254353,1.11276 1.039038,0.26698 1.515229,0.50507 0.212959,0.10648 0.292117,0.3986 0.505076,0.50508 0.150585,0.0753 0.345357,-0.0532 0.505076,0 0.357143,0.11905 0.673435,0.33672 1.010153,0.50508 1.199784,0.59989 1.440106,0.81135 3.030457,1.01015 0.668235,0.0835 1.375272,-0.19351 2.020306,0 1.081754,0.32452 1.959029,1.15808 3.030457,1.51523 0.971534,0.32384 2.045774,0.22374 3.030458,0.50507 0.228934,0.0654 0.292117,0.3986 0.505076,0.50508 0.150585,0.0753 0.336718,0 0.505076,0 0.168359,0 0.336718,0 0.505077,0 0.505076,0 1.010152,0 1.515228,0 0.336718,0 0.673435,0 1.010153,0 0.336717,0 0.690714,0.10648 1.010153,0 0.225877,-0.0753 0.336717,-0.33672 0.505076,-0.50508 0.168359,-0.16836 0.336717,-0.33671 0.505076,-0.50507 2.439025,-2.43903 -0.528286,0.66035 2.020305,-2.52538 0.297474,-0.37185 0.673435,-0.67344 1.010153,-1.01016 1.010152,-1.01015 2.020305,-2.0203 3.030457,-3.03045 0.505077,-0.50508 1.100059,-0.93399 1.515229,-1.51523 0.437628,-0.61268 0.572525,-1.40763 1.010153,-2.02031 2.158215,-3.0215 0.677767,-0.54221 2.525381,-2.0203 3.345834,-3.34584 0.05184,-0.37128 2.525381,-2.02031 0.582781,-0.38852 0.932449,-1.12671 1.515229,-1.51523 1.834667,-1.22311 0.357172,0.14791 1.515229,-1.01015 0.265905,-0.2659 1.245476,-1.38035 1.515229,-1.51523 0.150585,-0.0753 0.386029,0.11905 0.505076,0 0.119048,-0.11905 -0.154746,-0.43875 0,-0.50507 1.126569,-0.48282 2.387903,-0.5798 3.535534,-1.01016 0.222936,-0.0836 0.279199,-0.42978 0.505076,-0.50507 0.319439,-0.10648 0.673435,0 1.010153,0 0.673435,0 1.35207,0.0835 2.020305,0 0.688801,-0.0861 1.339624,-0.36894 2.020305,-0.50508 0.165089,-0.033 0.354492,0.0753 0.505076,0 0.212959,-0.10648 0.271605,-0.45838 0.505077,-0.50508 0.990536,-0.1981 2.020305,0 3.030457,0 1.010153,0 2.030458,-0.14285 3.030458,0 1.839254,0.26276 1.062455,0.52251 2.525384,1.01016 0.31944,0.10648 0.69071,-0.10648 1.01015,0 0.35714,0.11904 0.66062,0.36526 1.01015,0.50507 0.49432,0.19773 1.02091,0.30735 1.51523,0.50508 1.1669,0.46676 1.67358,1.1685 2.52538,2.0203 0.16836,0.16836 0.33672,0.33672 0.50508,0.50508 0.16836,0.16836 0.3986,0.29212 0.50508,0.50508 0.0753,0.15058 -0.0753,0.35449 0,0.50507 0.10647,0.21296 0.41664,0.28401 0.50507,0.50508 0.25781,0.64451 0.28556,1.36177 0.50508,2.0203 0.23809,0.71429 0.86249,1.28201 1.01015,2.02031 0.0991,0.49527 0,1.01015 0,1.51523 0,0.16836 -0.0532,0.34536 0,0.50507 0.11905,0.35715 0.38603,0.65301 0.50508,1.01016 0.0532,0.15972 0,0.33671 0,0.50507 0,0.50508 -0.083,1.01703 0,1.51523 0.0875,0.52516 0.40066,0.99317 0.50507,1.51523 0.066,0.33018 -0.0817,0.68349 0,1.01015 0.0913,0.36522 0.41377,0.64493 0.50508,1.01016 0.0817,0.32666 0,0.67343 0,1.01015 0,0.84179 0,1.68359 0,2.52538 0,2.8621 0,5.7242 0,8.5863 0,1.51523 0,3.03045 0,4.54568 0,0.6116 0.11379,1.45135 0,2.02031 -0.13614,0.68068 -0.40691,1.33312 -0.50508,2.0203 -0.0714,0.5 0,1.01016 0,1.51523 0,0.16836 0.0753,0.35449 0,0.50508 -1.67512,1.67513 0.2381,-0.47619 -0.50507,1.01015 -0.10648,0.21296 -0.3986,0.29212 -0.50508,0.50508 -0.15058,0.30117 0.15058,0.70898 0,1.01015 -0.10648,0.21296 -0.3986,0.29212 -0.50508,0.50508 -0.15058,0.30117 0.15059,0.70898 0,1.01015 -0.10648,0.21296 -0.39859,0.29212 -0.50507,0.50508 -0.15059,0.30116 0.15058,0.70898 0,1.01015 -0.10648,0.21296 -0.3986,0.29212 -0.50508,0.50507 -0.15058,0.30117 0.2381,0.77206 0,1.01016 -0.11905,0.11904 -0.38603,-0.11905 -0.50507,0 -0.11905,0.11904 0.11904,0.38603 0,0.50507 -1.04503,1.04502 0.0408,-1.59693 -1.01016,0.50508 -0.0753,0.15058 0.11905,0.38603 0,0.50508 -0.11905,0.11904 -0.38603,-0.11905 -0.50507,0 -0.11905,0.11904 0.11904,0.38602 0,0.50507 -0.11905,0.11905 -0.38603,-0.11905 -0.50508,0 -0.2662,0.2662 -0.29625,0.69692 -0.50508,1.01015 -0.26414,0.39622 -0.79719,0.58424 -1.01015,1.01016 -0.0753,0.15058 0.11905,0.38603 0,0.50507 -0.23809,0.2381 -0.77206,-0.23809 -1.01015,0 -0.11905,0.11905 0.16333,0.54591 0,0.50508 -0.73044,-0.18261 -1.34687,-0.67344 -2.02031,-1.01015 z"
             id="path4578"
             inkscape:connector-curvature="0" />
          <path
             style="fill:none;fill-opacity:0.86163522;fill-rule:evenodd;stroke:#f24833;stroke-width:3;stroke-linecap:butt;stroke-linejoin:miter;stroke-miterlimit:4;stroke-dasharray:none;stroke-opacity:0.7798742"
             d="m 98.136837,249.73053 22.142853,-8.92858 -23.214281,4.64286 5.714281,-9.64286 -13.928567,5 7.857143,-8.92857 -15,1.78572 10.357143,-9.28572 -10.357143,-4.28571 35.714284,-3.21429 -3.57143,8.57143 0.71429,-13.21428 -26.785716,0 21.785716,-8.92858 -13.928573,-2.14285 7.857143,-5 -12.5,0 6.071429,-7.5 -10.714286,0.35714 3.928571,-7.5 -9.285714,-1.07143 3.571429,-5.71428 -4.642858,-2.14286 5.714286,-10.71429 -8.571428,0.35715 8.571428,-7.14286 -12.5,-2.5 10.357143,-5.35714 -10,-2.14286 8.214286,-5 -5,-2.85714 3.928571,-4.64286 15.357143,-7.14286 -3.214286,4.64286 -8.571428,-5.71429 3.571428,12.14286 5.714286,-11.42857 7.85714,12.14286 -7.499997,-1.78572 8.214287,-4.28571 -8.214287,10.71428 8.214287,-0.35714 -7.857144,8.21429 7.142854,-1.07143 -6.071426,6.07143 4.999996,1.42857 -3.571424,7.14285 3.571424,0.35715"
             id="path4586"
             inkscape:path-effect="#path-effect4588"
             inkscape:original-d="m 98.136837,249.73053 22.142853,-8.92858 -23.214281,4.64286 5.714281,-9.64286 -13.928567,5 7.857143,-8.92857 -15,1.78572 10.357143,-9.28572 -10.357143,-4.28571 35.714284,-3.21429 -3.57143,8.57143 0.71429,-13.21428 -26.785716,0 21.785716,-8.92858 -13.928573,-2.14285 7.857143,-5 -12.5,0 6.071429,-7.5 -10.714286,0.35714 3.928571,-7.5 -9.285714,-1.07143 3.571429,-5.71428 -4.642858,-2.14286 5.714286,-10.71429 -8.571428,0.35715 8.571428,-7.14286 -12.5,-2.5 10.357143,-5.35714 -10,-2.14286 8.214286,-5 -5,-2.85714 3.928571,-4.64286 15.357143,-7.14286 -3.214286,4.64286 -8.571428,-5.71429 3.571428,12.14286 5.714286,-11.42857 7.85714,12.14286 -7.499997,-1.78572 8.214287,-4.28571 -8.214287,10.71428 8.214287,-0.35714 -7.857144,8.21429 7.142854,-1.07143 -6.071426,6.07143 4.999996,1.42857 -3.571424,7.14285 3.571424,0.35715"
             inkscape:connector-curvature="0" />
          <text
             xml:space="preserve"
             style="font-style:normal;font-weight:normal;font-size:40px;line-height:125%;font-family:sans-serif;letter-spacing:0px;word-spacing:0px;fill:#000000;fill-opacity:1;stroke:none;stroke-width:1px;stroke-linecap:butt;stroke-linejoin:miter;stroke-opacity:1"
             x="239.33411"
             y="45.982227"
             id="text4598"
             sodipodi:linespacing="125%"><tspan
               sodipodi:role="line"
               id="tspan4600"
               x="239.33411"
               y="45.982227">Dendritas</tspan></text>
          <path
             style="fill:#231313;fill-opacity:0.8627451;fill-rule:evenodd;stroke:#000000;stroke-width:2;stroke-linecap:butt;stroke-linejoin:miter;stroke-miterlimit:4;stroke-dasharray:none;stroke-opacity:1"
             d="m 294.38743,533.88591 c 0.0241,1.82597 -0.19518,3.80519 0.50508,5.55584 0.0625,0.15631 0.38602,-0.11905 0.50507,0 0.2381,0.23809 -0.10648,0.69071 0,1.01015 0.11905,0.35714 0.38603,0.65301 0.50508,1.01015 0.0532,0.15972 -0.0532,0.34536 0,0.50508 0.11905,0.35714 0.41377,0.64493 0.50507,1.01015 0.16334,0.65333 -0.30116,1.41797 0,2.02031 0.0753,0.15058 0.46425,-0.16334 0.50508,0 0,5.03384 -0.47619,0.56284 0.50508,2.52538 0.16758,0.33516 -0.16196,2.1205 0,2.52538 0.27963,0.69907 0.62277,1.37468 1.01015,2.0203 0.245,0.40833 0.79719,0.58424 1.01015,1.01016 0.0753,0.15058 -0.11905,0.38602 0,0.50507 0.10799,0.10799 1.74185,-0.0928 2.02031,0 0.35714,0.11905 0.65301,0.38603 1.01015,0.50508 0.15972,0.0532 0.33672,0 0.50508,0 0.33671,0 0.67343,0 1.01015,0 0.50508,0 1.01015,0 1.51523,0 0.33672,0 0.67997,0.066 1.01015,0 0.52206,-0.10441 0.99317,-0.40067 1.51523,-0.50508 0.33018,-0.066 0.69071,0.10648 1.01015,0 0.22588,-0.0753 0.27161,-0.45838 0.50508,-0.50507 0.66036,-0.13208 1.35995,0.13207 2.0203,0 0.23347,-0.0467 0.29212,-0.3986 0.50508,-0.50508 0.47619,-0.2381 1.03904,-0.26698 1.51523,-0.50508 0.21296,-0.10648 0.27409,-0.44733 0.50507,-0.50507 0.50508,0 1.01016,0 1.51523,0 0.16836,-0.16836 0.2792,-0.42979 0.50508,-0.50508 0.31944,-0.10648 0.70898,0.15059 1.01015,0 0.15059,-0.0753 -0.0532,-0.34536 0,-0.50508 0.11905,-0.35714 0.23888,-0.74395 0.50508,-1.01015 0.11905,-0.11905 0.35449,0.0753 0.50507,0 0.21296,-0.10648 0.33672,-0.33672 0.50508,-0.50507 0.16836,-0.16836 0.3986,-0.29212 0.50508,-0.50508 0.15058,-0.30117 -0.2381,-0.77206 0,-1.01015 0.11904,-0.11905 0.38603,0.11904 0.50507,0 0.11905,-0.11905 0,-0.33672 0,-0.50508 0,-0.84179 0,-1.68359 0,-2.52538 0,-1.01015 0,-2.02031 0,-3.03046 0,-0.35525 -0.29038,-1.40788 0.50508,-1.01015 0.95822,0.47911 0.14235,1.15251 1.01015,2.0203 0.2662,0.2662 0.65301,0.38603 1.01015,0.50508 0.31944,0.10648 0.77206,-0.23809 1.01016,0 0.11904,0.11905 0,0.33672 0,0.50508 0,0.75037 -0.12295,1.39228 0.50507,2.0203 0.11905,0.11905 0.38603,-0.11905 0.50508,0 0.2662,0.2662 0.29625,0.69692 0.50508,1.01015 0.13207,0.19811 0.373,0.30697 0.50507,0.50508 0.58037,0.87055 0.50508,0.76347 0.50508,1.51523 0,0.33672 -0.15059,0.70898 0,1.01015 0.0753,0.15059 0.38603,-0.11905 0.50508,0 0.0784,0.0784 -0.0655,1.31869 0,1.51523 -0.91462,2.11312 0.79719,0.58424 1.01015,1.01015 0.15058,0.30117 -0.10648,0.69072 0,1.01016 0.15058,0.45175 0.79719,0.58423 1.01015,1.01015 0.0753,0.15058 -0.0532,0.34536 0,0.50508 0.11905,0.35714 0.41377,0.64493 0.50508,1.01015 0.0817,0.32666 -0.15059,0.70898 0,1.01015 0.0753,0.15058 0.38603,-0.11905 0.50507,0 0.2662,0.2662 0.23888,0.74395 0.50508,1.01015 0.11905,0.11905 0.38603,-0.11904 0.50508,0 0.67343,0.67344 -1.07143,0.48465 0.50507,1.01016 0.23102,0.077 1.79556,-0.11238 2.02031,0 0.42591,0.21295 0.58423,0.79719 1.01015,1.01015 0.15058,0.0753 0.35449,-0.0753 0.50508,0 0.21295,0.10648 0.27919,0.42978 0.50507,0.50507 0.31944,0.10648 0.72999,-0.18677 1.01015,0 0.31324,0.20883 0.18227,0.81647 0.50508,1.01016 0.59524,0.35714 1.36177,0.28556 2.02031,0.50507 2.04571,0.68191 -0.11972,0.66014 3.03045,1.01016 0.83665,0.093 1.70872,-0.20417 2.52538,0 0.58891,0.14722 0.97229,0.73868 1.51523,1.01015 0.15059,0.0753 0.34175,-0.0408 0.50508,0 0.5165,0.12912 0.99317,0.40066 1.51523,0.50507 0.49527,0.0991 1.01015,0 1.51523,0 1.51523,0 3.03045,0 4.54568,0 0.8418,0 1.68359,0 2.52539,0 0.33671,0 0.70898,0.15059 1.01015,0 0.15058,-0.0753 -0.11905,-0.38602 0,-0.50507 0.2662,-0.2662 0.74395,-0.23888 1.01015,-0.50508 0.2662,-0.2662 0.19184,-0.80133 0.50508,-1.01015 0.28016,-0.18678 0.70898,0.15058 1.01015,0 0.15058,-0.0753 -0.11905,-0.38603 0,-0.50508 0.11905,-0.11904 0.35449,0.0753 0.50508,0 2.102,-1.051 -0.53995,0.0349 0.50507,-1.01015 0.11905,-0.11905 0.38603,0.11905 0.50508,0 0.11905,-0.11905 -0.0934,-0.36499 0,-0.50508 0.26414,-0.39621 0.67343,-0.67343 1.01015,-1.01015 0.16836,-0.16836 0.42978,-0.2792 0.50508,-0.50507 0.10648,-0.31944 -0.15059,-0.70899 0,-1.01016 0.15058,-0.30117 0.90367,0.31944 1.01015,0 0.15972,-0.47915 -0.15972,-1.03607 0,-1.51523 0.0532,-0.15972 0.38603,0.11905 0.50508,0 0.11904,-0.11904 -0.0532,-0.34535 0,-0.50507 0.11904,-0.35715 0.38602,-0.65301 0.50507,-1.01015 0.13422,-0.40265 -0.12216,-2.40323 0,-2.52539 0.11905,-0.11904 0.38603,0.11905 0.50508,0 0.23809,-0.23809 -0.2381,-0.77205 0,-1.01015 0.11905,-0.11905 0.48983,0.16767 0.50507,0 0.0418,-0.45987 -0.59765,-5.41697 0.50508,-7.07107 0.0934,-0.14008 0.42978,0.15059 0.50508,0 0.26043,-0.52086 -0.3141,-1.8109 0,-2.0203 0.88596,-0.59064 2.0203,-0.67344 3.03045,-1.01015 0.50508,-0.16836 0.99317,-0.40067 1.51523,-0.50508 0.33018,-0.066 0.68349,0.0817 1.01016,0 0.36522,-0.0913 0.641,-0.43125 1.01015,-0.50508 0.49527,-0.099 1.01015,0 1.51523,0 0.33671,0 0.70898,0.15059 1.01015,0 0.42592,-0.21296 0.61394,-0.74601 1.01015,-1.01015 0.14009,-0.0934 0.42979,0.15059 0.50508,0 0.15058,-0.30117 -0.15059,-0.70898 0,-1.01015 0.0753,-0.15059 0.35449,0.0753 0.50507,0 0.21296,-0.10648 0.37301,-0.30697 0.50508,-0.50508 0.20882,-0.31323 0.29625,-0.69692 0.50508,-1.01015 0.26414,-0.39622 0.85957,-0.5584 1.01015,-1.01015 0.10648,-0.31944 -0.15058,-0.70899 0,-1.01016 0.0753,-0.15058 0.38603,0.11905 0.50508,0 0.11904,-0.11904 -0.11905,-0.38602 0,-0.50507 0.11904,-0.11905 0.38602,0.11905 0.50507,0 0.0612,-0.0612 -0.0518,-0.80279 0,-1.01015 1.27578,-5.1031 -0.18238,0.36476 1.01016,-2.02031 0.0753,-0.15058 0,-0.33672 0,-0.50508 0,-0.67343 -0.21296,-1.38142 0,-2.0203 0.0532,-0.15972 0.42978,0.15058 0.50507,0 0.15059,-0.30117 0,-0.67344 0,-1.01015 0,-0.16836 -0.11905,-0.38603 0,-0.50508 0.11905,-0.11905 0.42979,0.15058 0.50508,0 0.15058,-0.30117 0,-0.67343 0,-1.01015 0,-0.50508 -0.1225,-1.02524 0,-1.51523 0.0577,-0.23099 0.39859,-0.29212 0.50507,-0.50508 0.15059,-0.30117 -0.23809,-0.77205 0,-1.01015 0.11905,-0.11905 0.38603,0.11905 0.50508,0 0.2662,-0.2662 0.31139,-0.68734 0.50508,-1.01015 0.31231,-0.52052 0.58092,-1.086 1.01015,-1.51523 0.11905,-0.11905 0.38603,0.11905 0.50508,0 0.23809,-0.2381 -0.2381,-0.77206 0,-1.01015 0.11904,-0.11905 0.38602,0.11904 0.50507,0 0.2381,-0.2381 -0.23809,-0.77206 0,-1.01016 0.11905,-0.11904 0.35449,0.0753 0.50508,0 0.21296,-0.10648 0.29212,-0.39859 0.50507,-0.50507 0.15059,-0.0753 0.33672,0 0.50508,0 0.16836,0 0.38603,-0.11905 0.50508,0 0.11904,0.11904 0,0.33671 0,0.50507 0,0.16836 0,0.33672 0,0.50508 0,1.01015 0,2.0203 0,3.03046 0,0.33671 0,0.67343 0,1.01015 0,0.16836 -0.11905,0.38603 0,0.50508 0.11904,0.11904 0.41845,-0.14437 0.50507,0 0.32121,0.53534 0.94882,2.68591 1.51523,3.53553 0.26414,0.39621 0.7972,0.58423 1.01015,1.01015 0.2381,0.47619 0.20976,1.07225 0.50508,1.51523 0.89791,1.34687 0.16719,-2.02381 1.01015,0.50508 0.10648,0.31944 0,0.67343 0,1.01015 0,0.16836 -0.0753,0.35449 0,0.50508 0.10648,0.21296 0.3986,0.29211 0.50508,0.50507 0.0753,0.15059 -0.11905,0.38603 0,0.50508 0.11905,0.11905 0.38603,-0.11905 0.50508,0 0.0162,0.0162 0,1.39273 0,1.51523 0,3.70389 0,7.40778 0,11.11168 0,0.18974 -0.0126,2.51277 0,2.52538 0.33145,0.33145 1.65624,-0.64609 2.0203,-1.01016 0.11905,-0.11904 -0.38603,-0.11904 -0.50508,0 -0.11904,0.11905 0,0.33672 0,0.50508 0,3.35026 0.2381,-0.71428 -0.50507,1.51523 -0.10648,0.31944 0,0.67343 0,1.01015 0,0.16836 0.0753,0.35449 0,0.50508 -0.10648,0.21296 -0.3986,0.29212 -0.50508,0.50507 -0.0753,0.15059 0,0.33672 0,0.50508 0,0.16836 0,0.33672 0,0.50508 0,0.64476 0.10801,3.1035 0,3.53553 -0.0577,0.23099 -0.42978,0.2792 -0.50507,0.50508 -0.20613,0.61836 0.15793,1.38857 0,2.0203 -0.12913,0.5165 -0.40067,0.99317 -0.50508,1.51523 -0.10024,0.50121 0,1.99473 0,2.52538 0,0.16836 0,0.33672 0,0.50508 0,0.16836 0.0753,0.35449 0,0.50508 -0.10648,0.21295 -0.3986,0.29211 -0.50508,0.50507 -0.15058,0.30117 0.2381,0.77206 0,1.01015 -0.11904,0.11905 -0.45183,-0.15971 -0.50507,0 -0.15972,0.47916 0.15972,1.03608 0,1.51523 -0.0532,0.15972 -0.38603,-0.11904 -0.50508,0 -0.23809,0.2381 0.15059,0.70899 0,1.01016 -1.15577,2.31153 0.20934,-2.14325 -1.01015,1.51522 -0.21952,0.65854 -0.19464,1.39943 -0.50508,2.02031 -0.0753,0.15058 -0.38603,-0.11905 -0.50507,0 -0.11905,0.11905 0,0.33672 0,0.50508 -0.33672,0.50507 -0.52454,1.15101 -1.01016,1.51522 -0.26937,0.20204 -0.70898,-0.15058 -1.01015,0 -0.15058,0.0753 0.0408,0.34175 0,0.50508 -0.12912,0.5165 -0.26698,1.03904 -0.50508,1.51523 -0.10648,0.21296 -0.33671,0.33672 -0.50507,0.50508 -0.33672,0.33671 -0.76516,0.60182 -1.01015,1.01015 -0.27392,0.45653 -0.23116,1.0587 -0.50508,1.51523 0.43219,2.34325 -1.086,0.58092 -1.51523,1.01015 -0.11905,0.11905 0,0.33672 0,0.50508 0,0.16835 0,0.33671 0,0.50507 0,0.8418 0,1.68359 0,2.52538 0,0.50508 0.22588,1.06348 0,1.51523 -0.21296,0.42592 -0.74601,0.61394 -1.01015,1.01016 -0.11125,0.16687 0.13195,2.76655 0,3.03045 -0.10648,0.21296 -0.3986,0.29212 -0.50508,0.50508 -0.0753,0.15058 0.0753,0.35449 0,0.50508 -0.10648,0.21295 -0.36222,0.3146 -0.50507,0.50507 -0.36422,0.48562 -0.64594,1.02961 -1.01016,1.51523 -0.14285,0.19048 -0.39859,0.29212 -0.50507,0.50508 -0.82137,1.64273 -0.12751,1.20141 -1.01016,2.52538 -0.47825,0.71738 -1.78194,0.80015 -2.0203,1.51523 -0.10648,0.31944 0.23809,0.77205 0,1.01015 -0.2381,0.23809 -0.70898,-0.15059 -1.01015,0 -0.30117,0.15058 0.23809,0.77206 0,1.01015 -0.81374,0.81374 -1.09434,-2.60956 -0.50508,1.51523 0.70602,4.94213 -0.22557,-0.18046 2.52538,2.02031 0.54205,0.43363 0.39096,1.33558 0.50508,2.0203 0.0553,0.33214 0,0.67344 0,1.01015 0,1.17851 0,2.35703 0,3.53554 0,3.19881 0,6.39763 0,9.59645 0,1.68358 0,3.36717 0,5.05076 0,0.50508 -0.1225,1.02523 0,1.51523 0.0577,0.23098 0.39859,0.29212 0.50507,0.50507 0.15873,0.31746 -0.15872,1.70286 0,2.02031 0.10648,0.21296 0.33672,0.33672 0.50508,0.50508 0,0.50507 -0.1225,1.02523 0,1.51522 0.0577,0.23099 0.3986,0.29212 0.50508,0.50508 0.20203,0.40406 -0.20203,1.11117 0,1.51523 0.10648,0.21296 0.39859,0.29212 0.50507,0.50508 0.15059,0.30117 -0.066,0.67997 0,1.01015 -0.43116,1.28282 0.7519,1.99745 1.01016,3.03046 0.0937,0.3749 -0.15504,1.86527 0,2.0203 0.11904,0.11905 0.42978,-0.15058 0.50507,0 0.22588,0.45176 -0.22588,1.06348 0,1.51523 0.10648,0.21296 0.42979,0.2792 0.50508,0.50508 0.21296,0.63887 -0.16333,1.36697 0,2.0203 0.0913,0.36522 0.33672,0.67344 0.50507,1.01015 0,0.50508 -0.083,1.01703 0,1.51523 0.73895,4.43365 0.1858,-0.77205 1.01016,2.52538 0.1225,0.49 -0.15972,1.03608 0,1.51523 1.21949,3.65848 -0.14562,-0.7963 1.01015,1.51523 0.14585,0.29171 -0.12388,2.53493 0,3.03046 0.18261,0.73044 0.73052,1.32123 1.01015,2.0203 0.19773,0.49432 0.40067,0.99318 0.50508,1.51523 0.066,0.33018 -0.15059,0.70899 0,1.01016 0.21296,0.42591 0.8333,0.56802 1.01015,1.01015 0.18758,0.46895 0,1.01015 0,1.51523 0,0.16836 -0.11905,0.38603 0,0.50507 0.11905,0.11905 0.38603,-0.11904 0.50508,0 0.11904,0.11905 0,0.33672 0,0.50508 0,1.01015 0,2.0203 0,3.03046 0,0.33672 0,0.67343 0,1.01015 0,0.16836 -0.0625,0.34876 0,0.50508 0.27963,0.69907 0.73052,1.32123 1.01015,2.0203 0.0625,0.15632 -0.0532,0.34536 0,0.50508 0.23809,0.71428 0.82754,1.28986 1.01015,2.0203 0.0817,0.32667 -0.23809,0.77206 0,1.01016 0.2381,0.23809 0.70898,-0.15059 1.01015,0 0.15059,0.0753 0,0.33671 0,0.50507 0,0.50508 0,1.01015 0,1.51523 0,0.33672 -0.0817,0.68349 0,1.01015 0.0913,0.36522 0.33672,0.67344 0.50508,1.01016 0.16836,0.50507 0.40067,0.99317 0.50508,1.51522 0.066,0.33018 -0.10648,0.69072 0,1.01016 0.0753,0.22587 0.42978,0.2792 0.50507,0.50507 0.0905,0.27154 0,1.59269 0,2.02031 0,0.16836 -0.15058,0.42978 0,0.50507 0.30117,0.15059 0.70899,-0.15058 1.01016,0 0.15058,0.0753 -0.11905,0.38603 0,0.50508 0.11904,0.11905 0.38602,-0.11905 0.50507,0 0.11905,0.11905 0,0.33672 0,0.50508 0,0.33671 0.2381,0.77205 0,1.01015 -0.23809,0.23809 -0.69071,-0.10648 -1.01015,0 -0.22588,0.0753 -0.29212,0.3986 -0.50508,0.50508 -0.15371,0.0769 -1.28776,0 -1.51523,0 -0.84179,0 -1.68358,0 -2.52538,0 -0.33671,0 -0.69071,0.10648 -1.01015,0 -0.35714,-0.11905 -0.65301,-0.38603 -1.01015,-0.50508 -0.15972,-0.0532 -0.38603,0.11905 -0.50508,0 -0.2662,-0.2662 -0.17821,-0.82338 -0.50507,-1.01015 -0.92048,-0.52599 -4.07514,-1.04468 -5.05077,-2.02031 -0.37646,-0.37646 -0.12861,-1.13877 -0.50507,-1.51523 -0.3503,-0.35029 -1.76076,-0.2315 -2.02031,-1.01015 -0.10648,-0.31944 0.10648,-0.69071 0,-1.01015 -0.15058,-0.45176 -0.79719,-0.58424 -1.01015,-1.01015 -0.0753,-0.15059 0.0753,-0.3545 0,-0.50508 -0.10648,-0.21296 -0.42979,-0.2792 -0.50508,-0.50508 -0.10648,-0.31944 0.15059,-0.70898 0,-1.01015 -0.0753,-0.15058 -0.42978,-0.15058 -0.50507,0 -0.15059,0.30117 0.0817,0.68349 0,1.01015 -0.0913,0.36522 -0.41377,0.64493 -0.50508,1.01016 -0.0855,0.3418 0,3.21051 0,3.53553 0,2.52538 0,5.05076 0,7.57614 0,0.8418 0,1.68359 0,2.52538 0,0.16836 0.15058,0.42979 0,0.50508 -1.79583,0.89791 -0.5612,-0.56119 -1.01015,-1.01015 -0.21263,-0.21263 -2.3171,-0.89037 -2.52538,-1.51523 -0.21296,-0.63888 0.21295,-1.38143 0,-2.02031 -0.0753,-0.22587 -0.37301,-0.30696 -0.50508,-0.50507 -1.57366,-2.3605 0.98906,0.60498 -1.51523,-2.52538 -0.29747,-0.37185 -0.79719,-0.58424 -1.01015,-1.01016 -0.31044,-0.62087 -0.28557,-1.36176 -0.50508,-2.0203 -0.23809,-0.71429 -0.77206,-1.30602 -1.01015,-2.02031 -0.10648,-0.31943 0,-0.67343 0,-1.01015 0,-0.84179 0,-1.68359 0,-2.52538 0,-0.50508 0,-1.01015 0,-1.51523 0,-0.33672 -0.0817,-0.68349 0,-1.01015 0.18261,-0.73044 0.82754,-1.28986 1.01015,-2.02031 0.0817,-0.32666 -0.10648,-0.69071 0,-1.01015 0.0753,-0.22588 0.3986,-0.29212 0.50508,-0.50507 0.0753,-0.15059 0,-0.33672 0,-0.50508 0.33672,-0.33672 0.74601,-0.61394 1.01015,-1.01015 0.0934,-0.14009 -0.0934,-0.365 0,-0.50508 0.80502,-1.20753 1.16981,-0.63864 1.51523,-2.02031 0.19807,-0.79227 -0.19807,-1.7331 0,-2.52538 0.0577,-0.23098 0.3986,-0.29211 0.50508,-0.50507 0.0753,-0.15059 -0.0625,-0.34876 0,-0.50508 0.27962,-0.69907 0.77205,-1.30602 1.01015,-2.0203 0.0985,-0.29551 0,-2.59694 0,-3.03046 0,-3.64483 0.36071,-7.68452 -1.01015,-11.11168 -0.1538,-0.38448 -0.5284,-1.27435 -1.01016,-1.51523 -0.30117,-0.15058 -0.77205,0.2381 -1.01015,0 -0.23809,-0.23809 0.11823,-0.69487 0,-1.01015 -0.4502,-1.20055 -0.99448,-2.36386 -1.51523,-3.53553 -0.15289,-0.34402 -0.41377,-0.64494 -0.50507,-1.01016 -0.1225,-0.48999 0,-1.01015 0,-1.51523 0,-1.01015 0,-2.0203 0,-3.03045 0,-0.50508 0.22587,-1.06348 0,-1.51523 -0.0753,-0.15059 -0.41169,0.14008 -0.50508,0 -0.0126,-0.0189 -0.97326,-2.93822 -1.01015,-3.03046 -0.13982,-0.34954 -0.41377,-0.64493 -0.50508,-1.01015 -0.16333,-0.65333 0.30117,-1.41797 0,-2.02031 -0.0753,-0.15058 -0.42978,0.15059 -0.50508,0 -0.15058,-0.30117 0,-0.67343 0,-1.01015 0,-0.67344 0.12047,-1.35773 0,-2.02031 1.05424,-2.0843 -1.12785,-2.99618 -1.51522,-4.54568 -0.16334,-0.65333 0.16333,-1.36698 0,-2.02031 -0.0913,-0.36522 -0.41378,-0.64493 -0.50508,-1.01015 -0.0817,-0.32666 0.15058,-0.70898 0,-1.01015 -0.0753,-0.15059 -0.38603,0.11905 -0.50508,0 -0.23809,-0.2381 0.10648,-0.69072 0,-1.01015 -0.2867,-0.86012 -0.64193,-1.69689 -1.01015,-2.52539 -1.23835,-2.78628 -0.6274,-1.21402 -2.0203,-3.53553 -0.19369,-0.32281 -0.2792,-0.70898 -0.50508,-1.01015 -0.28572,-0.38096 -0.79719,-0.58424 -1.01015,-1.01016 -0.15059,-0.30116 0.15058,-0.70898 0,-1.01015 -0.21296,-0.42592 -0.61394,-0.74601 -1.01016,-1.01015 -0.14008,-0.0934 -0.42978,0.15058 -0.50507,0 -0.15059,-0.30117 0.0925,-0.68639 0,-1.01015 -0.24908,-0.87176 -0.69181,-1.67647 -1.01015,-2.52538 -1.25248,-0.47666 -0.28557,-1.36177 -0.50508,-2.02031 -0.16612,-0.49836 -1.01692,-2.27623 -1.51523,-2.52538 -0.15058,-0.0753 -0.38603,0.11905 -0.50508,0 -0.11904,-0.11905 0.11905,-0.38603 0,-0.50508 -0.11904,-0.11904 -0.38602,0.11905 -0.50507,0 -0.11905,-0.11904 0.11905,-0.38603 0,-0.50507 -0.11905,-0.11905 -0.38603,0.11904 -0.50508,0 -2.55155,-2.55155 -0.77633,-1.16449 -2.0203,-3.03046 0.0504,-1.00059 -0.74396,-0.23888 -1.01016,-0.50508 -0.11904,-0.11904 0.11905,-0.38603 0,-0.50507 -0.003,-0.003 -1.49834,0.004 -1.51523,0 -0.36522,-0.0913 -0.70898,-0.2792 -1.01015,-0.50508 -0.7619,-0.57143 -1.27662,-1.42536 -2.0203,-2.0203 -0.47401,-0.37921 -1.086,-0.58093 -1.51523,-1.01016 -0.42923,-0.42923 -0.58092,-1.08599 -1.01015,-1.51523 -0.2662,-0.26619 -0.70899,-0.2792 -1.01016,-0.50507 -0.38095,-0.28572 -0.6292,-0.72444 -1.01015,-1.01015 -0.30117,-0.22588 -0.68734,-0.31139 -1.01015,-0.50508 -0.52052,-0.31231 -0.97229,-0.73868 -1.51523,-1.01015 -0.24751,-0.12376 -2.73416,0.0741 -3.03046,0 -0.23098,-0.0577 -0.2792,-0.42979 -0.50507,-0.50508 -0.23121,-0.0771 -2.24347,0 -2.52539,0 -1.34687,0 -2.69374,0 -4.04061,0 -0.33189,0 -1.23026,0.095 -1.51522,0 -2.86161,-1.4308 0.75292,0.18823 -2.02031,-0.50508 -0.36522,-0.0913 -0.64493,-0.41377 -1.01015,-0.50507 -0.32667,-0.0817 -0.69072,0.10648 -1.01016,0 -0.33712,-0.11238 -1.71228,-1.8663 -2.0203,-2.02031 -0.30117,-0.15058 -0.67344,0 -1.01015,0 -0.50508,0 -1.01016,0 -1.51523,0 -0.33672,0 -0.67998,0.066 -1.01015,0 -0.52206,-0.10441 -0.99317,-0.40066 -1.51523,-0.50507 -0.82545,-0.16509 -1.69504,0.13839 -2.52538,0 -1.05031,-0.17506 -1.97389,-0.87809 -3.03046,-1.01016 -0.8353,-0.10441 -1.70364,0.18261 -2.52538,0 -0.735,-0.16333 -1.33228,-0.70436 -2.02031,-1.01015 -0.8285,-0.36822 -1.69205,-0.65301 -2.52538,-1.01015 -0.0646,-0.0277 -2.00455,-1.007 -2.0203,-1.01015 -0.49527,-0.0991 -1.02524,0.12249 -1.51523,0 -0.23099,-0.0577 -0.28401,-0.41665 -0.50508,-0.50508 -0.64451,-0.25781 -1.39943,-0.19464 -2.02031,-0.50508 -0.42591,-0.21296 -0.60182,-0.76515 -1.01015,-1.01015 -0.45652,-0.27392 -1.03904,-0.26698 -1.51523,-0.50508 -0.54294,-0.27147 -0.95728,-0.77103 -1.51523,-1.01015 -0.63803,-0.27344 -1.39942,-0.19464 -2.0203,-0.50507 -3.2649,-1.63246 0.77489,-0.30272 -1.51523,-2.02031 -0.42592,-0.31944 -1.0587,-0.23116 -1.51523,-0.50508 -0.40833,-0.24499 -0.67343,-0.67343 -1.01015,-1.01015 -0.33672,-0.33672 -0.72444,-0.6292 -1.01015,-1.01015 -0.22588,-0.30117 -0.23888,-0.74395 -0.50508,-1.01015 -0.2662,-0.2662 -0.69692,-0.29626 -1.01015,-0.50508 -0.57916,-0.38611 -1.27847,-1.70462 -1.51523,-2.0203 -0.14286,-0.19048 -0.3986,-0.29212 -0.50508,-0.50508 -0.0753,-0.15059 0,-0.33672 0,-0.50508 0,-0.16836 0,-0.33671 0,-0.50507 0,-1.01016 0,-2.02031 0,-3.03046 0,-2.35702 0,-4.71405 0,-7.07107 0,-0.33672 -0.0554,-0.67802 0,-1.01015 1.06168,-6.37006 -0.0905,-0.23343 1.01016,-3.53554 0.10647,-0.31943 -0.2381,-0.77205 0,-1.01015 0.11904,-0.11905 0.33671,0 0.50507,0 0.16836,-0.16836 0.37301,-0.30697 0.50508,-0.50507 1.47063,-2.20595 -0.22385,0.16648 0.50507,-2.02031 0.0753,-0.22588 0.33672,-0.33672 0.50508,-0.50508 0.16836,-0.16835 0.29212,-0.39859 0.50508,-0.50507 0.15058,-0.0753 0.34535,0.0532 0.50507,0 3.65848,-1.21949 -0.7963,0.14561 1.51523,-1.01015 0.15059,-0.0753 0.35449,0.0753 0.50508,0 0.54294,-0.27147 1.02961,-0.64594 1.51523,-1.01016 0.19047,-0.14285 0.29211,-0.39859 0.50507,-0.50507 0.15059,-0.0753 0.38603,0.11904 0.50508,0 0.11905,-0.11905 -0.11905,-0.38603 0,-0.50508 0.11905,-0.11905 0.33672,0 0.50508,0 0.16835,0 0.50507,-0.16836 0.50507,0 0,0.16836 -0.67343,0 -0.50507,0 0.33671,0 0.67343,0 1.01015,0 0.16836,0 0.34876,0.0625 0.50507,0 0.69908,-0.27963 1.34687,-0.67343 2.02031,-1.01015 z"
             id="path4602"
             inkscape:connector-curvature="0" />
          <path
             style="fill:none;fill-rule:evenodd;stroke:#f24833;stroke-width:3;stroke-linecap:butt;stroke-linejoin:miter;stroke-miterlimit:4;stroke-dasharray:none;stroke-opacity:0.78039216"
             d="m 294.20827,533.30196 8.92857,-2.85715 -6.07143,8.21429 4.28571,-0.71429 -3.21428,6.78572 4.28571,0.35714 -1.78571,7.14286 7.14285,-9.28572 0.71429,8.21429 8.57143,-9.64286 -7.5,0.71429 6.42857,7.5 -5.71429,-16.42857 7.85715,5.35714 -5,-23.92857 19.64285,42.85714 5.71429,-12.5 -10,1.07143 5.71429,-7.85714 -11.78572,2.14285 6.42857,-10.71428 -18.57143,-4.64286 10,-5.35714 -1.07142,18.57143 16.42857,3.92857 1.78571,16.78571 5.71429,-7.85714 2.5,9.64286 4.28571,-6.07143 5.35714,7.5 -0.35714,-8.21429 6.07143,2.5 -16.42857,-25.71428 17.5,13.92857 -13.57143,-3.21429 13.92857,8.92857 -8.57143,1.07143 10.71429,-10 -8.92857,-12.14286 12.14285,8.57143 -19.64285,-8.57143 15.71428,14.28572 4.64286,-12.85714 5,6.42857 -0.71429,-7.85715 6.78572,2.85715 -10.35714,-9.28572 15.35714,-6.42857 -11.07143,8.92857 6.42857,0.71429 -5,10"
             id="path4608"
             inkscape:path-effect="#path-effect4610"
             inkscape:original-d="m 294.20827,533.30196 8.92857,-2.85715 -6.07143,8.21429 4.28571,-0.71429 -3.21428,6.78572 4.28571,0.35714 -1.78571,7.14286 7.14285,-9.28572 0.71429,8.21429 8.57143,-9.64286 -7.5,0.71429 6.42857,7.5 -5.71429,-16.42857 7.85715,5.35714 -5,-23.92857 19.64285,42.85714 5.71429,-12.5 -10,1.07143 5.71429,-7.85714 -11.78572,2.14285 6.42857,-10.71428 -18.57143,-4.64286 10,-5.35714 -1.07142,18.57143 16.42857,3.92857 1.78571,16.78571 5.71429,-7.85714 2.5,9.64286 4.28571,-6.07143 5.35714,7.5 -0.35714,-8.21429 6.07143,2.5 -16.42857,-25.71428 17.5,13.92857 -13.57143,-3.21429 13.92857,8.92857 -8.57143,1.07143 10.71429,-10 -8.92857,-12.14286 12.14285,8.57143 -19.64285,-8.57143 15.71428,14.28572 4.64286,-12.85714 5,6.42857 -0.71429,-7.85715 6.78572,2.85715 -10.35714,-9.28572 15.35714,-6.42857 -11.07143,8.92857 6.42857,0.71429 -5,10"
             inkscape:connector-curvature="0" />
          <text
             sodipodi:linespacing="125%"
             id="text4618"
             y="44.408638"
             x="995.21252"
             style="font-style:normal;font-weight:normal;font-size:40px;line-height:125%;font-family:sans-serif;letter-spacing:0px;word-spacing:0px;fill:#000000;fill-opacity:1;stroke:none;stroke-width:1px;stroke-linecap:butt;stroke-linejoin:miter;stroke-opacity:1"
             xml:space="preserve"><tspan
               y="44.408638"
               x="995.21252"
               id="tspan4620"
               sodipodi:role="line">Terminacin</tspan><tspan
               y="94.408638"
               x="995.21252"
               sodipodi:role="line"
               id="tspan4632">Axnica</tspan></text>
          <text
             xml:space="preserve"
             style="font-style:normal;font-weight:normal;font-size:40px;line-height:125%;font-family:sans-serif;letter-spacing:0px;word-spacing:0px;fill:#000000;fill-opacity:1;stroke:none;stroke-width:1px;stroke-linecap:butt;stroke-linejoin:miter;stroke-opacity:1"
             x="575.00934"
             y="384.98737"
             id="text4634"
             sodipodi:linespacing="125%"><tspan
               sodipodi:role="line"
               id="tspan4636"
               x="575.00934"
               y="384.98737">Axn</tspan></text>
        </g>
        <g
           id="Neck">
          <g
             id="Small_Cell"
             style="fill:#f4cc4b">
            <path
               id="path3687"
               d="m 383.5,371.21252 c 29.73372,-6.58867 57.99394,6.95485 85.67244,16.25008 7.07584,2.89756 13.29553,8.28646 16.44747,15.33189 -0.56539,12.48331 -13.66954,22.60671 -25.89067,20.1049 -20.81927,0.40026 -42.50084,-2.0186 -60.90562,-12.46069 -8.69775,-3.84797 -18.16183,-9.38592 -20.95585,-19.13922 -1.20874,-7.14958 1.79888,-14.2115 5.63223,-20.08696 z"
               inkscape:connector-curvature="0"
               style="fill:#000000;fill-opacity:0.90566041" />
            <path
               style="fill:none;fill-rule:evenodd;stroke:#000000;stroke-width:4;stroke-linecap:butt;stroke-linejoin:miter;stroke-miterlimit:4;stroke-dasharray:none;stroke-opacity:1;marker-end:url(#Arrow1Mend)"
               d="m 946.4409,268.21579 32.32488,30.30458"
               id="path4638"
               inkscape:connector-curvature="0" />
            <path
               style="fill:none;fill-rule:evenodd;stroke:#000000;stroke-width:4;stroke-linecap:butt;stroke-linejoin:miter;stroke-miterlimit:4;stroke-dasharray:none;stroke-opacity:1;marker-end:url(#marker4982)"
               d="m 928.21754,167.20053 44.44671,-24.24366"
               id="path4640"
               inkscape:connector-curvature="0" />
            <path
               style="fill:none;fill-rule:evenodd;stroke:#000000;stroke-width:4;stroke-linecap:butt;stroke-linejoin:miter;stroke-miterlimit:4;stroke-dasharray:none;stroke-opacity:1;marker-end:url(#marker4930)"
               d="m 885.83174,280.33762 10.10153,30.30458"
               id="path4642"
               inkscape:connector-curvature="0" />
            <path
               style="fill:#231313;fill-opacity:0.93081761;fill-rule:evenodd;stroke:#000000;stroke-width:20;stroke-linecap:butt;stroke-linejoin:miter;stroke-miterlimit:4;stroke-dasharray:none;stroke-opacity:1;marker-end:url(#Arrow1Send)"
               d="m -59.67104,391.4544 107.076172,0"
               id="path5054"
               inkscape:connector-curvature="0" />
            <path
               inkscape:connector-curvature="0"
               id="path5152"
               d="m 1063.6186,211.64725 107.0762,0"
               style="fill:#231313;fill-opacity:0.93081761;fill-rule:evenodd;stroke:#000000;stroke-width:20;stroke-linecap:butt;stroke-linejoin:miter;stroke-miterlimit:4;stroke-dasharray:none;stroke-opacity:1;marker-end:url(#marker5154)" />
            <text
               xml:space="preserve"
               style="font-style:normal;font-weight:normal;font-size:40px;line-height:125%;font-family:sans-serif;letter-spacing:0px;word-spacing:0px;fill:#000000;fill-opacity:1;stroke:none;stroke-width:1px;stroke-linecap:butt;stroke-linejoin:miter;stroke-opacity:1"
               x="-85.934998"
               y="357.10922"
               id="text5386"
               sodipodi:linespacing="125%"><tspan
                 sodipodi:role="line"
                 id="tspan5388"
                 x="-85.934998"
                 y="357.10922">Entrada</tspan></text>
            <text
               xml:space="preserve"
               style="font-style:normal;font-weight:normal;font-size:40px;line-height:125%;font-family:sans-serif;letter-spacing:0px;word-spacing:0px;fill:#000000;fill-opacity:1;stroke:none;stroke-width:1px;stroke-linecap:butt;stroke-linejoin:miter;stroke-opacity:1"
               x="1065.6389"
               y="276.29703"
               id="text5390"
               sodipodi:linespacing="125%"><tspan
                 sodipodi:role="line"
                 id="tspan5392"
                 x="1065.6389"
                 y="276.29703">Salida</tspan></text>
          </g>
          <g
             id="Small_Cell_Nucleus"
             style="fill:#d79b9b">
            <path
               id="path3698"
               d="m 415.25,393.46252 c 3.0616,-0.52019 5.33182,-0.93522 7.125,-3.625 5.59213,-8.38819 -10.05311,-8.89896 -14.25,-7.5 -8.56188,2.85396 0.006,12.33449 7.125,11.125 z"
               inkscape:connector-curvature="0"
               style="fill:#f5f2f5;fill-opacity:1" />
            <path
               id="path3700"
               d="m 536.375,434.83752 c 3.28921,-0.30585 6.25799,-0.88298 8.5,-3.125 7.28578,-7.28577 -8.20639,-9.72287 -12.625,-8.25 -7.16886,2.38962 -2.83373,12.02205 4.125,11.375 z"
               inkscape:connector-curvature="0"
               style="fill:#f5f2f5;fill-opacity:1" />
            <path
               id="path3702"
               d="m 657.875,443.96252 c 24.45312,1.4981 12.67565,-21.01602 -3.5,-11.375 -5.2911,3.1536 -1.42525,11.375 3.5,11.375 z"
               inkscape:connector-curvature="0"
               style="fill:#f5f2f5;fill-opacity:1" />
            <path
               id="path3704"
               d="m 764.25,389.96252 c -3.03826,0.0784 -5.71193,2.14129 -8.125,3.75 -8.41496,5.60998 3.46629,13.49195 10.1224,10.8295 11.0124,-4.40496 9.92954,-15.86724 -1.9974,-14.5795 z"
               inkscape:connector-curvature="0"
               style="fill:#f5f2f5;fill-opacity:1" />
            <path
               id="path3706"
               d="m 834.53661,327.66963 c 2.40255,0.89066 5.90239,-2.42089 7.15533,-4.92678 0.81335,-1.62668 2.13637,-3.48291 2.60356,-5.35355 5.24667,-21.00799 -28.03168,3.50628 -9.75889,10.28033 z"
               inkscape:connector-curvature="0"
               style="fill:#f5f2f5;fill-opacity:1" />
          </g>
        </g>
      </g>
      <g
         id="Lines"
         style="stroke:#000000;stroke-width:2;stroke-linecap:round">
        <path
           sodipodi:nodetypes="cc"
           id="path10"
           d="M 223.77999,192.41409 218.496,53.177857"
           inkscape:connector-curvature="0" />
        <path
           sodipodi:nodetypes="cc"
           id="path12"
           d="M 336.25374,350.47992 420.42549,243.28857"
           inkscape:connector-curvature="0" />
        <path
           sodipodi:nodetypes="cc"
           id="path14"
           d="M 130.81475,591.28612 264.32592,417.66392"
           inkscape:connector-curvature="0" />
        <path
           sodipodi:nodetypes="cc"
           id="path18"
           d="M 563.88099,493.77718 438.15794,424.50677"
           inkscape:connector-curvature="0" />
        <path
           sodipodi:nodetypes="cc"
           id="path22"
           d="m 1030.9617,104.08955 -26.6855,148.00223"
           inkscape:connector-curvature="0" />
        <text
           xml:space="preserve"
           style="font-style:normal;font-weight:normal;font-size:40px;line-height:125%;font-family:sans-serif;letter-spacing:0px;word-spacing:0px;fill:#000000;fill-opacity:1;stroke:none;stroke-width:1px;stroke-linecap:butt;stroke-linejoin:miter;stroke-opacity:1"
           x="75.99398"
           y="627.94482"
           id="text4562"
           sodipodi:linespacing="125%"><tspan
             sodipodi:role="line"
             id="tspan4564"
             x="75.99398"
             y="627.94482">Ncleo</tspan></text>
        <path
           inkscape:connector-curvature="0"
           d="m 358.4771,538.3683 120.53724,64.53458"
           id="path4612"
           sodipodi:nodetypes="cc" />
        <text
           xml:space="preserve"
           style="font-style:normal;font-weight:normal;font-size:40px;line-height:125%;font-family:sans-serif;letter-spacing:0px;word-spacing:0px;fill:#000000;fill-opacity:1;stroke:none;stroke-width:1px;stroke-linecap:butt;stroke-linejoin:miter;stroke-opacity:1"
           x="469.6489"
           y="643.99255"
           id="text4614"
           sodipodi:linespacing="125%"><tspan
             sodipodi:role="line"
             id="tspan4616"
             x="469.6489"
             y="643.99255">Sinapsis</tspan></text>
        <text
           xml:space="preserve"
           style="font-style:normal;font-weight:normal;font-size:40px;line-height:125%;font-family:sans-serif;letter-spacing:0px;word-spacing:0px;fill:#000000;fill-opacity:1;stroke:none;stroke-width:1px;stroke-linecap:butt;stroke-linejoin:miter;stroke-opacity:1"
           x="566.90778"
           y="514.73364"
           id="text4626"
           sodipodi:linespacing="125%"><tspan
             sodipodi:role="line"
             id="tspan4628"
             x="566.90778"
             y="514.73364">Procesamiento</tspan><tspan
             sodipodi:role="line"
             x="566.90778"
             y="564.73364"
             id="tspan4630">de la informacin</tspan></text>
      </g>
      <text
         xml:space="preserve"
         style="font-style:normal;font-weight:normal;font-size:40px;line-height:125%;font-family:sans-serif;letter-spacing:0px;word-spacing:0px;fill:#000000;fill-opacity:1;stroke:none;stroke-width:1px;stroke-linecap:butt;stroke-linejoin:miter;stroke-opacity:1"
         x="429.2428"
         y="243.97214"
         id="text4622"
         sodipodi:linespacing="125%"><tspan
           sodipodi:role="line"
           id="tspan4624"
           x="429.2428"
           y="243.97214">Soma</tspan></text>
    </g>
  </g>
</svg>
