<?xml version="1.0" encoding="UTF-8" standalone="no"?>
<!-- Created with Inkscape (http://www.inkscape.org/) -->

<svg
   xmlns:dc="http://purl.org/dc/elements/1.1/"
   xmlns:cc="http://creativecommons.org/ns#"
   xmlns:rdf="http://www.w3.org/1999/02/22-rdf-syntax-ns#"
   xmlns:svg="http://www.w3.org/2000/svg"
   xmlns="http://www.w3.org/2000/svg"
   xmlns:sodipodi="http://sodipodi.sourceforge.net/DTD/sodipodi-0.dtd"
   xmlns:inkscape="http://www.inkscape.org/namespaces/inkscape"
   width="920.49554mm"
   height="423.29016mm"
   viewBox="0 0 920.49555 423.29016"
   version="1.1"
   id="svg8"
   inkscape:version="0.92.2 (unknown)"
   sodipodi:docname="RNNewilliamandelman-ES.svg">
  <defs
     id="defs2" />
  <sodipodi:namedview
     id="base"
     pagecolor="#ffffff"
     bordercolor="#666666"
     borderopacity="1.0"
     inkscape:pageopacity="0.0"
     inkscape:pageshadow="2"
     inkscape:zoom="0.35"
     inkscape:cx="1836.5389"
     inkscape:cy="795.31559"
     inkscape:document-units="mm"
     inkscape:current-layer="layer1"
     showgrid="false"
     fit-margin-top="0"
     fit-margin-left="0"
     fit-margin-right="0"
     fit-margin-bottom="0"
     inkscape:window-width="1301"
     inkscape:window-height="744"
     inkscape:window-x="65"
     inkscape:window-y="24"
     inkscape:window-maximized="1" />
  <metadata
     id="metadata5">
    <rdf:RDF>
      <cc:Work
         rdf:about="">
        <format>image/svg+xml</format>
        <dc:type
           rdf:resource="http://purl.org/dc/dcmitype/StillImage" />
        <dc:title></dc:title>
        <dc:format>image/svg+xml</dc:format>
      </cc:Work>
    </rdf:RDF>
  </metadata>
  <g
     inkscape:label="Layer 1"
     inkscape:groupmode="layer"
     id="layer1"
     transform="translate(31.810906,-116.32904)">
    <g
       transform="matrix(0.35277777,0,0,-0.35277777,-31.810907,543.48925)"
       inkscape:label="RNNewilliamandelman"
       id="g15356">
      <g
         id="g15358">
        <path
           inkscape:connector-curvature="0"
           id="path15360"
           style="fill:#080808;fill-opacity:1;fill-rule:nonzero;stroke:none"
           d="m 90.086,402.461 h 38.828 V 351.856 H 90.086 Z" />
        <path
           inkscape:connector-curvature="0"
           id="path15362"
           style="fill:#717276;fill-opacity:0.385093;fill-rule:nonzero;stroke:none"
           d="m 372.148,596.949 c 0,-31.878 -27.671,-57.722 -61.804,-57.722 -34.133,0 -61.805,25.844 -61.805,57.722 0,31.879 27.672,57.723 61.805,57.723 34.133,0 61.804,-25.844 61.804,-57.723 z" />
        <g
           transform="matrix(1,0,0,-0.97837,0,1210.8479)"
           id="g15364">
          <path
             inkscape:connector-curvature="0"
             id="path15366"
             style="fill:none;stroke:#000000;stroke-width:1.96647;stroke-linecap:butt;stroke-linejoin:miter;stroke-miterlimit:4;stroke-dasharray:none;stroke-opacity:1"
             d="m 372.148,627.471 c 0,32.583 -27.671,58.998 -61.804,58.998 -34.133,0 -61.805,-26.415 -61.805,-58.998 0,-32.584 27.672,-58.999 61.805,-58.999 34.133,0 61.804,26.415 61.804,58.999 z" />
        </g>
        <path
           inkscape:connector-curvature="0"
           id="path15368"
           style="fill:none;stroke:#000000;stroke-width:0.61748803;stroke-linecap:butt;stroke-linejoin:miter;stroke-miterlimit:4;stroke-dasharray:none;stroke-opacity:1"
           d="M 306.418,637.5 V 560.93" />
        <path
           inkscape:connector-curvature="0"
           id="path15370"
           style="fill:none;stroke:#000000;stroke-width:0.61748803;stroke-linecap:butt;stroke-linejoin:miter;stroke-miterlimit:4;stroke-dasharray:none;stroke-opacity:1"
           d="m 267.965,594.762 h 80.406" />
        <path
           inkscape:connector-curvature="0"
           id="path15372"
           style="fill:none;stroke:#000000;stroke-width:1.85246301;stroke-linecap:butt;stroke-linejoin:miter;stroke-miterlimit:4;stroke-dasharray:none;stroke-opacity:1"
           d="m 264.211,563.649 c 20.867,0.894 39.996,4.156 41.406,31.48 0,0 5.067,23.188 11.004,27.856 10.34,8.132 37.813,10.546 37.813,10.546 l -0.618,0.629" />
        <path
           inkscape:connector-curvature="0"
           id="path15374"
           style="fill:#717276;fill-opacity:0.385093;fill-rule:nonzero;stroke:none"
           d="m 542.715,969.656 c 0,-31.878 -27.668,-57.722 -61.801,-57.722 -34.141,0 -61.812,25.844 -61.812,57.722 0,31.879 27.671,57.719 61.812,57.719 34.133,0 61.801,-25.84 61.801,-57.719 z" />
        <g
           transform="matrix(1,0,0,-0.97837,0,1210.8479)"
           id="g15376">
          <path
             inkscape:connector-curvature="0"
             id="path15378"
             style="fill:none;stroke:#000000;stroke-width:1.87282801;stroke-linecap:butt;stroke-linejoin:miter;stroke-miterlimit:4;stroke-dasharray:none;stroke-opacity:1"
             d="m 542.715,246.524 c 0,32.583 -27.668,58.999 -61.801,58.999 -34.141,0 -61.812,-26.416 -61.812,-58.999 0,-32.584 27.671,-58.995 61.812,-58.995 34.133,0 61.801,26.411 61.801,58.995 z" />
        </g>
        <path
           inkscape:connector-curvature="0"
           id="path15380"
           style="fill:none;stroke:#000000;stroke-width:0.61748803;stroke-linecap:butt;stroke-linejoin:miter;stroke-miterlimit:4;stroke-dasharray:none;stroke-opacity:1"
           d="m 476.98,1010.207 v -76.57" />
        <path
           inkscape:connector-curvature="0"
           id="path15382"
           style="fill:none;stroke:#000000;stroke-width:0.61748803;stroke-linecap:butt;stroke-linejoin:miter;stroke-miterlimit:4;stroke-dasharray:none;stroke-opacity:1"
           d="m 438.527,967.469 h 80.407" />
        <path
           inkscape:connector-curvature="0"
           id="path15384"
           style="fill:none;stroke:#000000;stroke-width:1.85246301;stroke-linecap:butt;stroke-linejoin:miter;stroke-miterlimit:4;stroke-dasharray:none;stroke-opacity:1"
           d="m 434.773,936.356 c 20.868,0.894 39.997,4.156 41.407,31.476 0,0 5.074,23.188 11.008,27.86 10.335,8.132 37.816,10.547 37.816,10.547 l -0.621,0.628" />
        <path
           inkscape:connector-curvature="0"
           id="path15386"
           style="fill:#717276;fill-opacity:0.385093;fill-rule:nonzero;stroke:none"
           d="m 759.676,607.024 c 0,-31.879 -27.672,-57.723 -61.805,-57.723 -34.137,0 -61.809,25.844 -61.809,57.723 0,31.879 27.672,57.718 61.809,57.718 34.133,0 61.805,-25.839 61.805,-57.718 z" />
        <g
           transform="matrix(1,0,0,-0.97837,0,1210.8479)"
           id="g15388">
          <path
             inkscape:connector-curvature="0"
             id="path15390"
             style="fill:none;stroke:#000000;stroke-width:1.96647;stroke-linecap:butt;stroke-linejoin:miter;stroke-miterlimit:4;stroke-dasharray:none;stroke-opacity:1"
             d="m 759.676,617.174 c 0,32.583 -27.672,58.998 -61.805,58.998 -34.137,0 -61.809,-26.415 -61.809,-58.998 0,-32.584 27.672,-58.995 61.809,-58.995 34.133,0 61.805,26.411 61.805,58.995 z" />
        </g>
        <path
           inkscape:connector-curvature="0"
           id="path15392"
           style="fill:none;stroke:#000000;stroke-width:0.61748803;stroke-linecap:butt;stroke-linejoin:miter;stroke-miterlimit:4;stroke-dasharray:none;stroke-opacity:1"
           d="m 693.941,647.574 v -76.57" />
        <path
           inkscape:connector-curvature="0"
           id="path15394"
           style="fill:none;stroke:#000000;stroke-width:0.61748803;stroke-linecap:butt;stroke-linejoin:miter;stroke-miterlimit:4;stroke-dasharray:none;stroke-opacity:1"
           d="m 655.484,604.836 h 80.407" />
        <path
           inkscape:connector-curvature="0"
           id="path15396"
           style="fill:none;stroke:#000000;stroke-width:1.85246301;stroke-linecap:butt;stroke-linejoin:miter;stroke-miterlimit:4;stroke-dasharray:none;stroke-opacity:1"
           d="m 651.73,573.723 c 20.872,0.894 39.997,4.156 41.407,31.476 0,0 5.078,23.188 11.008,27.856 10.339,8.133 37.82,10.551 37.82,10.551 l -0.625,0.629" />
        <path
           inkscape:connector-curvature="0"
           id="path15398"
           style="fill:#080808;fill-opacity:1;fill-rule:nonzero;stroke:none"
           d="m 391.84,237.692 h 38.828 V 187.09 H 391.84 Z" />
        <path
           inkscape:connector-curvature="0"
           id="path15400"
           style="fill:#080808;fill-opacity:1;fill-rule:nonzero;stroke:none"
           d="m 598.883,239.27 h 38.828 v -50.602 h -38.828 z" />
        <path
           inkscape:connector-curvature="0"
           id="path15402"
           style="fill:none;stroke:#000000;stroke-width:4;stroke-linecap:butt;stroke-linejoin:miter;stroke-miterlimit:4;stroke-dasharray:none;stroke-opacity:1"
           d="M 330.578,662.985 456.641,908.653" />
        <g
           transform="matrix(-0.513158,-1,-1,0.513158,0,1210.8479)"
           id="g15404">
          <path
             inkscape:connector-curvature="0"
             id="path15406"
             style="fill:#000000;fill-opacity:1;fill-rule:evenodd;stroke:#000000;stroke-width:3.5587821;stroke-linecap:butt;stroke-linejoin:miter;stroke-miterlimit:4;stroke-dasharray:none;stroke-opacity:1"
             d="m 89.306,-484.207 14.233,-14.238 -49.82,14.234 49.82,14.235 z" />
        </g>
        <path
           inkscape:connector-curvature="0"
           id="path15408"
           style="fill:none;stroke:#000000;stroke-width:4;stroke-linecap:butt;stroke-linejoin:miter;stroke-miterlimit:4;stroke-dasharray:none;stroke-opacity:1"
           d="M 669.984,672.684 501.895,905.422" />
        <g
           transform="matrix(0.722222,-1,-1,-0.722222,0,1210.8479)"
           id="g15410">
          <path
             inkscape:connector-curvature="0"
             id="path15412"
             style="fill:#000000;fill-opacity:1;fill-rule:evenodd;stroke:#000000;stroke-width:3.24271703;stroke-linecap:butt;stroke-linejoin:miter;stroke-miterlimit:4;stroke-dasharray:none;stroke-opacity:1"
             d="m 471.375,-184.879 12.971,-12.968 -45.398,12.97 45.398,12.971 z" />
        </g>
        <path
           inkscape:connector-curvature="0"
           id="path15414"
           style="fill:none;stroke:#000000;stroke-width:3.20000005;stroke-linecap:butt;stroke-linejoin:miter;stroke-miterlimit:4;stroke-dasharray:none;stroke-opacity:1"
           d="M 411.387,245.992 320.879,530.453" />
        <g
           transform="matrix(0.318182,-1,-1,-0.318182,0,1210.8479)"
           id="g15416">
          <path
             inkscape:connector-curvature="0"
             id="path15418"
             style="fill:#000000;fill-opacity:1;fill-rule:evenodd;stroke:#000000;stroke-width:3.04936194;stroke-linecap:butt;stroke-linejoin:miter;stroke-miterlimit:4;stroke-dasharray:none;stroke-opacity:1"
             d="m 741.048,-94.794 12.198,-12.197 -42.69,12.198 42.692,12.201 z" />
        </g>
        <path
           inkscape:connector-curvature="0"
           id="path15420"
           style="fill:none;stroke:#000000;stroke-width:3.20000005;stroke-linecap:butt;stroke-linejoin:miter;stroke-miterlimit:4;stroke-dasharray:none;stroke-opacity:1"
           d="m 619.867,245.992 80.809,297.391" />
        <g
           transform="matrix(-0.271739,-1,-1,0.271739,0,1210.8479)"
           id="g15422">
          <path
             inkscape:connector-curvature="0"
             id="path15424"
             style="fill:#000000;fill-opacity:1;fill-rule:evenodd;stroke:#000000;stroke-width:3.08801699;stroke-linecap:butt;stroke-linejoin:miter;stroke-miterlimit:4;stroke-dasharray:none;stroke-opacity:1"
             d="m 475.138,-821.399 12.354,-12.353 -43.234,12.35 43.231,12.35 z" />
        </g>
        <path
           inkscape:connector-curvature="0"
           id="path15426"
           style="fill:none;stroke:#000000;stroke-width:3.20000005;stroke-linecap:butt;stroke-linejoin:miter;stroke-miterlimit:4;stroke-dasharray:none;stroke-opacity:1"
           d="M 618.336,247.66 337.105,532.117" />
        <g
           transform="matrix(0.988636,-1,-1,-0.988636,0,1210.8479)"
           id="g15428">
          <path
             inkscape:connector-curvature="0"
             id="path15430"
             style="fill:#000000;fill-opacity:1;fill-rule:evenodd;stroke:#000000;stroke-width:2.27563405;stroke-linecap:butt;stroke-linejoin:miter;stroke-miterlimit:4;stroke-dasharray:none;stroke-opacity:1"
             d="m 534.542,168.862 9.101,-9.1 -31.858,9.102 31.856,9.103 z" />
        </g>
        <path
           inkscape:connector-curvature="0"
           id="path15432"
           style="fill:none;stroke:#000000;stroke-width:3.20000005;stroke-linecap:butt;stroke-linejoin:miter;stroke-miterlimit:4;stroke-dasharray:none;stroke-opacity:1"
           d="M 412.957,246.028 690.953,540.184" />
        <g
           transform="matrix(-0.945055,-1,-1,0.945055,0,1210.8479)"
           id="g15434">
          <path
             inkscape:connector-curvature="0"
             id="path15436"
             style="fill:#000000;fill-opacity:1;fill-rule:evenodd;stroke:#000000;stroke-width:2.32573295;stroke-linecap:butt;stroke-linejoin:miter;stroke-miterlimit:4;stroke-dasharray:none;stroke-opacity:1"
             d="m 32.597,-699.774 9.302,-9.303 -32.56,9.302 32.56,9.303 z" />
        </g>
        <path
           inkscape:connector-curvature="0"
           id="path15438"
           style="fill:none;stroke:#000000;stroke-width:3.20000005;stroke-linecap:butt;stroke-linejoin:miter;stroke-miterlimit:4;stroke-dasharray:none;stroke-opacity:1"
           d="m 185.273,61.742 691.754,3.231" />
        <path
           inkscape:connector-curvature="0"
           id="path15440"
           style="fill:none;stroke:#000000;stroke-width:2.4000001;stroke-linecap:butt;stroke-linejoin:miter;stroke-miterlimit:4;stroke-dasharray:none;stroke-opacity:1"
           d="M 408.316,181.344 V 64.973" />
        <path
           inkscape:connector-curvature="0"
           id="path15442"
           style="fill:none;stroke:#000000;stroke-width:2.4000001;stroke-linecap:butt;stroke-linejoin:miter;stroke-miterlimit:4;stroke-dasharray:none;stroke-opacity:1"
           d="M 618.332,182.977 V 66.606" />
        <text
           id="text15446"
           style="font-variant:normal;font-weight:bold;font-size:44.79999924px;font-family:'Bitstream Vera Sans';-inkscape-font-specification:BitstreamVeraSans-Bold;writing-mode:lr-tb;fill:#000000;fill-opacity:1;fill-rule:nonzero;stroke:none"
           transform="matrix(1,0,0,-1,435.97251,14.921014)">
          <tspan
             id="tspan15444"
             sodipodi:role="line"
             y="0"
             x="0 16.6656 48.518398 80.5504 112.4032 133.8176">Entradas</tspan>
        </text>
        <path
           inkscape:connector-curvature="0"
           id="path15448"
           style="fill:#080808;fill-opacity:1;fill-rule:nonzero;stroke:none"
           d="m 878.777,389.434 h 38.828 v -50.605 h -38.828 z" />
        <path
           inkscape:connector-curvature="0"
           id="path15450"
           style="fill:none;stroke:#000000;stroke-width:2;stroke-linecap:butt;stroke-linejoin:miter;stroke-miterlimit:4;stroke-dasharray:none;stroke-opacity:1"
           d="M 314.578,666.219 178.809,766.426 H 10.719 l 16.164,-504.27 h 87.281 l -3.238,51.719 v 35.559" />
        <path
           inkscape:connector-curvature="0"
           id="path15452"
           style="fill:#000000;fill-opacity:1;fill-rule:evenodd;stroke:none"
           d="m 102.051,328.051 8.84,24.039 8.839,-24.039 c -5.218,3.844 -12.355,3.82 -17.679,0 z" />
        <path
           inkscape:connector-curvature="0"
           id="path15454"
           style="fill:none;stroke:#000000;stroke-width:3.20000005;stroke-linecap:butt;stroke-linejoin:miter;stroke-miterlimit:4;stroke-dasharray:none;stroke-opacity:1"
           d="M 122.035,399.555 681.254,541.781" />
        <g
           transform="matrix(-1,-0.254335,-0.254335,1,0,1210.8479)"
           id="g15456">
          <path
             inkscape:connector-curvature="0"
             id="path15458"
             style="fill:#000000;fill-opacity:1;fill-rule:evenodd;stroke:#000000;stroke-width:3.1012671;stroke-linecap:butt;stroke-linejoin:miter;stroke-miterlimit:4;stroke-dasharray:none;stroke-opacity:1"
             d="m -449.024,-791.156 12.409,-12.402 -43.417,12.403 43.419,12.406 z" />
        </g>
        <path
           inkscape:connector-curvature="0"
           id="path15460"
           style="fill:none;stroke:#000000;stroke-width:3.20000005;stroke-linecap:butt;stroke-linejoin:miter;stroke-miterlimit:4;stroke-dasharray:none;stroke-opacity:1"
           d="M 101.066,407.617 243.297,591.871" />
        <g
           transform="matrix(-0.77193,-1,-1,0.77193,0,1210.8479)"
           id="g15462">
          <path
             inkscape:connector-curvature="0"
             id="path15464"
             style="fill:#000000;fill-opacity:1;fill-rule:evenodd;stroke:#000000;stroke-width:2.53308892;stroke-linecap:butt;stroke-linejoin:miter;stroke-miterlimit:4;stroke-dasharray:none;stroke-opacity:1"
             d="m 295.509,-451.854 10.131,-10.133 -35.463,10.133 35.465,10.131 z" />
        </g>
        <path
           inkscape:connector-curvature="0"
           id="path15466"
           style="fill:none;stroke:#000000;stroke-width:3.20000005;stroke-linecap:butt;stroke-linejoin:miter;stroke-miterlimit:4;stroke-dasharray:none;stroke-opacity:1"
           d="M 872.004,388.223 358.039,546.614" />
        <g
           transform="matrix(1,-0.308176,-0.308176,-1,0,1210.8479)"
           id="g15468">
          <path
             inkscape:connector-curvature="0"
             id="path15470"
             style="fill:#000000;fill-opacity:1;fill-rule:evenodd;stroke:#000000;stroke-width:3.0580771;stroke-linecap:butt;stroke-linejoin:miter;stroke-miterlimit:4;stroke-dasharray:none;stroke-opacity:1"
             d="m 544.505,505.853 12.238,-12.233 -42.812,12.233 42.809,12.233 z" />
        </g>
        <path
           inkscape:connector-curvature="0"
           id="path15472"
           style="fill:none;stroke:#000000;stroke-width:3.20000005;stroke-linecap:butt;stroke-linejoin:miter;stroke-miterlimit:4;stroke-dasharray:none;stroke-opacity:1"
           d="m 897.859,401.153 -129.3,193.949" />
        <g
           transform="matrix(0.666667,-1,-1,-0.666667,0,1210.8479)"
           id="g15474">
          <path
             inkscape:connector-curvature="0"
             id="path15476"
             style="fill:#000000;fill-opacity:1;fill-rule:evenodd;stroke:#000000;stroke-width:2.66256094;stroke-linecap:butt;stroke-linejoin:miter;stroke-miterlimit:4;stroke-dasharray:none;stroke-opacity:1"
             d="m 807.63,-247.888 10.652,-10.653 -37.277,10.653 37.278,10.645 z" />
        </g>
        <text
           id="text15480"
           style="font-variant:normal;font-weight:bold;font-size:44.79999924px;font-family:'Bitstream Vera Sans';-inkscape-font-specification:BitstreamVeraSans-Bold;writing-mode:lr-tb;fill:#000000;fill-opacity:1;fill-rule:nonzero;stroke:none"
           transform="matrix(1,0,0,-1,390.71767,1168.9193)">
          <tspan
             id="tspan15478"
             sodipodi:role="line"
             y="0"
             x="0 38.079998 69.9328 91.347198 123.3792 155.23199">Salida</tspan>
        </text>
        <path
           inkscape:connector-curvature="0"
           id="path15482"
           style="fill:none;stroke:#000000;stroke-width:3.20000005;stroke-linecap:butt;stroke-linejoin:miter;stroke-miterlimit:4;stroke-dasharray:none;stroke-opacity:1"
           d="m 476.203,1036.387 3.227,116.367" />
        <g
           transform="matrix(0.0277778,1,1,-0.0277778,0,1210.8479)"
           id="g15484">
          <path
             inkscape:connector-curvature="0"
             id="path15486"
             style="fill:#000000;fill-opacity:1;fill-rule:evenodd;stroke:#000000;stroke-width:1.599383;stroke-linecap:butt;stroke-linejoin:miter;stroke-miterlimit:4;stroke-dasharray:none;stroke-opacity:1"
             d="m -38.472,480.674 c 0,3.535 -2.865,6.396 -6.397,6.4 -3.531,-0.003 -6.396,-2.869 -6.396,-6.4 -10e-4,-3.531 2.865,-6.4 6.397,-6.392 3.531,-0.005 6.399,2.861 6.396,6.392 z" />
        </g>
        <text
           id="text15490"
           style="font-variant:normal;font-weight:bold;font-size:44.79999924px;font-family:'Bitstream Vera Sans';-inkscape-font-specification:BitstreamVeraSans-Bold;writing-mode:lr-tb;fill:#000000;fill-opacity:1;fill-rule:nonzero;stroke:none"
           transform="matrix(1,0,0,-1,791.54617,199.17287)">
          <tspan
             id="tspan15488"
             sodipodi:role="line"
             y="0"
             x="0 26.521599 57.299198 89.152 110.5664 140.9408 169.83679 191.25119 206.8416 238.6944 270.54718 285.8688">Unidades de Contexto</tspan>
        </text>
        <text
           id="text15494"
           style="font-variant:normal;font-weight:bold;font-size:32px;font-family:'Bitstream Vera Sans';-inkscape-font-specification:BitstreamVeraSans-Bold;writing-mode:lr-tb;fill:#000000;fill-opacity:1;fill-rule:nonzero;stroke:none"
           transform="matrix(1,0,0,-1,812.63857,591.93644)">
          <tspan
             id="tspan15492"
             sodipodi:role="line"
             y="0"
             x="0 26.752001 37.695999 60.576 83.456001 105.152 127.904 139.03999 161.696 183.392 206.144 221.92 243.90401 266.65601">Neuronas de Capa oculta</tspan>
        </text>
        <path
           inkscape:connector-curvature="0"
           id="path15496"
           style="fill:none;stroke:#000000;stroke-width:2.79999995;stroke-linecap:butt;stroke-linejoin:miter;stroke-miterlimit:4;stroke-dasharray:16.8, 16.8;stroke-dashoffset:0;stroke-opacity:1"
           d="m 477.836,1102.668 261.828,-3.23 h 184.254 l 126.062,3.23 -6.464,-562.453 V 368.895 L 927.145,365.66" />
        <path
           inkscape:connector-curvature="0"
           id="path15498"
           style="fill:#000000;fill-opacity:1;fill-rule:evenodd;stroke:none"
           d="m 957.418,354.074 -33.988,11.434 33.297,13.305 c -5.172,-7.453 -4.86,-17.446 0.691,-24.739 z" />
        <path
           inkscape:connector-curvature="0"
           id="path15500"
           style="fill:none;stroke:#000000;stroke-width:4;stroke-linecap:butt;stroke-linejoin:miter;stroke-miterlimit:4;stroke-dasharray:24, 24;stroke-dashoffset:0;stroke-opacity:1"
           d="M 414.621,255.692 466.34,886.028" />
        <g
           transform="matrix(-0.0820513,-1,-1,0.0820513,0,1210.8479)"
           id="g15502">
          <path
             inkscape:connector-curvature="0"
             id="path15504"
             style="fill:#000000;fill-opacity:1;fill-rule:evenodd;stroke:#000000;stroke-width:3.98660302;stroke-linecap:butt;stroke-linejoin:miter;stroke-miterlimit:4;stroke-dasharray:none;stroke-opacity:1"
             d="m 324.507,-489.697 15.946,-15.949 -55.813,15.947 55.813,15.952 z" />
        </g>
        <path
           inkscape:connector-curvature="0"
           id="path15506"
           style="fill:none;stroke:#000000;stroke-width:4;stroke-linecap:butt;stroke-linejoin:miter;stroke-miterlimit:4;stroke-dasharray:24, 24;stroke-dashoffset:0;stroke-opacity:1"
           d="M 615.035,262.156 488.965,886.028" />
        <g
           transform="matrix(0.202073,-1,-1,-0.202073,0,1210.8479)"
           id="g15508">
          <path
             inkscape:connector-curvature="0"
             id="path15510"
             style="fill:#000000;fill-opacity:1;fill-rule:evenodd;stroke:#000000;stroke-width:3.92075205;stroke-linecap:butt;stroke-linejoin:miter;stroke-miterlimit:4;stroke-dasharray:none;stroke-opacity:1"
             d="m 446.215,-406.723 15.685,-15.686 -54.892,15.686 54.889,15.685 z" />
        </g>
        <path
           inkscape:connector-curvature="0"
           id="path15512"
           style="fill:none;stroke:#000000;stroke-width:4;stroke-linecap:butt;stroke-linejoin:miter;stroke-miterlimit:4;stroke-dasharray:24, 24;stroke-dashoffset:0;stroke-opacity:1"
           d="m 101.066,410.852 c 9.02,270.742 133.543,431.472 323.25,530.129" />
        <g
           transform="matrix(-1,-0.520037,-0.520037,1,0,1210.8479)"
           id="g15514">
          <path
             inkscape:connector-curvature="0"
             id="path15516"
             style="fill:#000000;fill-opacity:1;fill-rule:evenodd;stroke:#000000;stroke-width:3.54881406;stroke-linecap:butt;stroke-linejoin:miter;stroke-miterlimit:4;stroke-dasharray:none;stroke-opacity:1"
             d="m -188.037,-386.11 14.195,-14.196 -49.684,14.197 49.686,14.194 z" />
        </g>
        <path
           inkscape:connector-curvature="0"
           id="path15518"
           style="fill:#080808;fill-opacity:1;fill-rule:nonzero;stroke:none"
           d="m 1379.77,399.145 h 38.828 V 348.54 h -38.828 z" />
        <path
           inkscape:connector-curvature="0"
           id="path15520"
           style="fill:#717276;fill-opacity:0.385093;fill-rule:nonzero;stroke:none"
           d="m 1661.836,593.633 c 0,-31.879 -27.672,-57.723 -61.805,-57.723 -34.136,0 -61.808,25.844 -61.808,57.723 0,31.879 27.672,57.723 61.808,57.723 34.133,0 61.805,-25.844 61.805,-57.723 z" />
        <g
           transform="matrix(1,0,0,-0.97837,0,1210.8479)"
           id="g15522">
          <path
             inkscape:connector-curvature="0"
             id="path15524"
             style="fill:none;stroke:#000000;stroke-width:1.96647;stroke-linecap:butt;stroke-linejoin:miter;stroke-miterlimit:4;stroke-dasharray:none;stroke-opacity:1"
             d="m 1661.836,630.86 c 0,32.584 -27.672,58.999 -61.805,58.999 -34.136,0 -61.808,-26.415 -61.808,-58.999 0,-32.583 27.672,-58.998 61.808,-58.998 34.133,0 61.805,26.415 61.805,58.998 z" />
        </g>
        <path
           inkscape:connector-curvature="0"
           id="path15526"
           style="fill:none;stroke:#000000;stroke-width:0.61748803;stroke-linecap:butt;stroke-linejoin:miter;stroke-miterlimit:4;stroke-dasharray:none;stroke-opacity:1"
           d="m 1596.102,634.184 v -76.57" />
        <path
           inkscape:connector-curvature="0"
           id="path15528"
           style="fill:none;stroke:#000000;stroke-width:0.61748803;stroke-linecap:butt;stroke-linejoin:miter;stroke-miterlimit:4;stroke-dasharray:none;stroke-opacity:1"
           d="m 1557.648,591.446 h 80.407" />
        <path
           inkscape:connector-curvature="0"
           id="path15530"
           style="fill:none;stroke:#000000;stroke-width:1.85246301;stroke-linecap:butt;stroke-linejoin:miter;stroke-miterlimit:4;stroke-dasharray:none;stroke-opacity:1"
           d="m 1553.895,560.332 c 20.867,0.895 39.996,4.157 41.406,31.481 0,0 5.07,23.187 11.004,27.855 10.34,8.133 37.816,10.547 37.816,10.547 l -0.617,0.629" />
        <path
           inkscape:connector-curvature="0"
           id="path15532"
           style="fill:#717276;fill-opacity:0.385093;fill-rule:nonzero;stroke:none"
           d="m 1832.402,966.34 c 0,-31.879 -27.672,-57.723 -61.804,-57.723 -34.137,0 -61.809,25.844 -61.809,57.723 0,31.879 27.672,57.719 61.809,57.719 34.132,0 61.804,-25.84 61.804,-57.719 z" />
        <g
           transform="matrix(1,0,0,-0.97837,0,1210.8479)"
           id="g15534">
          <path
             inkscape:connector-curvature="0"
             id="path15536"
             style="fill:none;stroke:#000000;stroke-width:1.87282801;stroke-linecap:butt;stroke-linejoin:miter;stroke-miterlimit:4;stroke-dasharray:none;stroke-opacity:1"
             d="m 1832.402,249.913 c 0,32.584 -27.672,58.999 -61.804,58.999 -34.137,0 -61.809,-26.415 -61.809,-58.999 0,-32.583 27.672,-58.994 61.809,-58.994 34.132,0 61.804,26.411 61.804,58.994 z" />
        </g>
        <path
           inkscape:connector-curvature="0"
           id="path15538"
           style="fill:none;stroke:#000000;stroke-width:0.61748803;stroke-linecap:butt;stroke-linejoin:miter;stroke-miterlimit:4;stroke-dasharray:none;stroke-opacity:1"
           d="m 1766.668,1006.891 v -76.57" />
        <path
           inkscape:connector-curvature="0"
           id="path15540"
           style="fill:none;stroke:#000000;stroke-width:0.61748803;stroke-linecap:butt;stroke-linejoin:miter;stroke-miterlimit:4;stroke-dasharray:none;stroke-opacity:1"
           d="m 1728.215,964.153 h 80.406" />
        <path
           inkscape:connector-curvature="0"
           id="path15542"
           style="fill:none;stroke:#000000;stroke-width:1.85246301;stroke-linecap:butt;stroke-linejoin:miter;stroke-miterlimit:4;stroke-dasharray:none;stroke-opacity:1"
           d="m 1724.461,933.039 c 20.867,0.895 39.996,4.157 41.406,31.477 0,0 5.071,23.187 11.008,27.859 10.336,8.133 37.813,10.547 37.813,10.547 l -0.618,0.629" />
        <path
           inkscape:connector-curvature="0"
           id="path15544"
           style="fill:#717276;fill-opacity:0.385093;fill-rule:nonzero;stroke:none"
           d="m 2049.363,603.707 c 0,-31.879 -27.672,-57.722 -61.808,-57.722 -34.133,0 -61.805,25.843 -61.805,57.722 0,31.879 27.672,57.719 61.805,57.719 34.136,0 61.808,-25.84 61.808,-57.719 z" />
        <g
           transform="matrix(1,0,0,-0.97837,0,1210.8479)"
           id="g15546">
          <path
             inkscape:connector-curvature="0"
             id="path15548"
             style="fill:none;stroke:#000000;stroke-width:1.96647;stroke-linecap:butt;stroke-linejoin:miter;stroke-miterlimit:4;stroke-dasharray:none;stroke-opacity:1"
             d="m 2049.363,620.563 c 0,32.584 -27.672,58.999 -61.808,58.999 -34.133,0 -61.805,-26.415 -61.805,-58.999 0,-32.583 27.672,-58.994 61.805,-58.994 34.136,0 61.808,26.411 61.808,58.994 z" />
        </g>
        <path
           inkscape:connector-curvature="0"
           id="path15550"
           style="fill:none;stroke:#000000;stroke-width:0.61748803;stroke-linecap:butt;stroke-linejoin:miter;stroke-miterlimit:4;stroke-dasharray:none;stroke-opacity:1"
           d="m 1983.629,644.258 v -76.57" />
        <path
           inkscape:connector-curvature="0"
           id="path15552"
           style="fill:none;stroke:#000000;stroke-width:0.61748803;stroke-linecap:butt;stroke-linejoin:miter;stroke-miterlimit:4;stroke-dasharray:none;stroke-opacity:1"
           d="m 1945.172,601.52 h 80.406" />
        <path
           inkscape:connector-curvature="0"
           id="path15554"
           style="fill:none;stroke:#000000;stroke-width:1.85246301;stroke-linecap:butt;stroke-linejoin:miter;stroke-miterlimit:4;stroke-dasharray:none;stroke-opacity:1"
           d="m 1941.418,570.406 c 20.871,0.895 39.996,4.157 41.406,31.477 0,0 5.074,23.188 11.008,27.856 10.34,8.132 37.816,10.55 37.816,10.55 l -0.621,0.629" />
        <path
           inkscape:connector-curvature="0"
           id="path15556"
           style="fill:#080808;fill-opacity:1;fill-rule:nonzero;stroke:none"
           d="m 1681.527,234.375 h 38.828 v -50.602 h -38.828 z" />
        <path
           inkscape:connector-curvature="0"
           id="path15558"
           style="fill:#080808;fill-opacity:1;fill-rule:nonzero;stroke:none"
           d="m 1888.57,235.953 h 38.828 v -50.605 h -38.828 z" />
        <path
           inkscape:connector-curvature="0"
           id="path15560"
           style="fill:none;stroke:#000000;stroke-width:4;stroke-linecap:butt;stroke-linejoin:miter;stroke-miterlimit:4;stroke-dasharray:none;stroke-opacity:1"
           d="m 1620.262,659.668 126.066,245.668" />
        <g
           transform="matrix(-0.513158,-1,-1,0.513158,0,1210.8479)"
           id="g15562">
          <path
             inkscape:connector-curvature="0"
             id="path15564"
             style="fill:#000000;fill-opacity:1;fill-rule:evenodd;stroke:#000000;stroke-width:3.5587821;stroke-linecap:butt;stroke-linejoin:miter;stroke-miterlimit:4;stroke-dasharray:none;stroke-opacity:1"
             d="m -431.932,-1506.417 14.234,-14.234 -49.82,14.234 49.82,14.235 z" />
        </g>
        <path
           inkscape:connector-curvature="0"
           id="path15566"
           style="fill:none;stroke:#000000;stroke-width:4;stroke-linecap:butt;stroke-linejoin:miter;stroke-miterlimit:4;stroke-dasharray:none;stroke-opacity:1"
           d="m 1959.672,669.367 -168.09,232.739" />
        <g
           transform="matrix(0.722222,-1,-1,-0.722222,0,1210.8479)"
           id="g15568">
          <path
             inkscape:connector-curvature="0"
             id="path15570"
             style="fill:#000000;fill-opacity:1;fill-rule:evenodd;stroke:#000000;stroke-width:3.24271703;stroke-linecap:butt;stroke-linejoin:miter;stroke-miterlimit:4;stroke-dasharray:none;stroke-opacity:1"
             d="m 1085.698,-1030.889 12.972,-12.968 -45.399,12.971 45.398,12.97 z" />
        </g>
        <path
           inkscape:connector-curvature="0"
           id="path15572"
           style="fill:none;stroke:#000000;stroke-width:3.20000005;stroke-linecap:butt;stroke-linejoin:miter;stroke-miterlimit:4;stroke-dasharray:none;stroke-opacity:1"
           d="m 1701.074,242.676 -90.512,284.461" />
        <g
           transform="matrix(0.318182,-1,-1,-0.318182,0,1210.8479)"
           id="g15574">
          <path
             inkscape:connector-curvature="0"
             id="path15576"
             style="fill:#000000;fill-opacity:1;fill-rule:evenodd;stroke:#000000;stroke-width:3.04936194;stroke-linecap:butt;stroke-linejoin:miter;stroke-miterlimit:4;stroke-dasharray:none;stroke-opacity:1"
             d="m 1116.689,-1264.955 12.197,-12.197 -42.689,12.198 42.693,12.197 z" />
        </g>
        <path
           inkscape:connector-curvature="0"
           id="path15578"
           style="fill:none;stroke:#000000;stroke-width:3.20000005;stroke-linecap:butt;stroke-linejoin:miter;stroke-miterlimit:4;stroke-dasharray:none;stroke-opacity:1"
           d="m 1909.551,242.676 80.812,297.391" />
        <g
           transform="matrix(-0.271739,-1,-1,0.271739,0,1210.8479)"
           id="g15580">
          <path
             inkscape:connector-curvature="0"
             id="path15582"
             style="fill:#000000;fill-opacity:1;fill-rule:evenodd;stroke:#000000;stroke-width:3.08801699;stroke-linecap:butt;stroke-linejoin:miter;stroke-miterlimit:4;stroke-dasharray:none;stroke-opacity:1"
             d="m 151.867,-2023.241 12.354,-12.353 -43.233,12.354 43.231,12.35 z" />
        </g>
        <path
           inkscape:connector-curvature="0"
           id="path15584"
           style="fill:none;stroke:#000000;stroke-width:3.20000005;stroke-linecap:butt;stroke-linejoin:miter;stroke-miterlimit:4;stroke-dasharray:none;stroke-opacity:1"
           d="M 1908.02,244.344 1626.793,528.801" />
        <g
           transform="matrix(0.988636,-1,-1,-0.988636,0,1210.8479)"
           id="g15586">
          <path
             inkscape:connector-curvature="0"
             id="path15588"
             style="fill:#000000;fill-opacity:1;fill-rule:evenodd;stroke:#000000;stroke-width:2.27563405;stroke-linecap:butt;stroke-linejoin:miter;stroke-miterlimit:4;stroke-dasharray:none;stroke-opacity:1"
             d="m 1181.018,-481.692 9.104,-9.101 -31.858,9.102 31.856,9.103 z" />
        </g>
        <path
           inkscape:connector-curvature="0"
           id="path15590"
           style="fill:none;stroke:#000000;stroke-width:3.20000005;stroke-linecap:butt;stroke-linejoin:miter;stroke-miterlimit:4;stroke-dasharray:none;stroke-opacity:1"
           d="m 1702.641,242.711 277.996,294.156" />
        <g
           transform="matrix(-0.945055,-1,-1,0.945055,0,1210.8479)"
           id="g15592">
          <path
             inkscape:connector-curvature="0"
             id="path15594"
             style="fill:#000000;fill-opacity:1;fill-rule:evenodd;stroke:#000000;stroke-width:2.32573295;stroke-linecap:butt;stroke-linejoin:miter;stroke-miterlimit:4;stroke-dasharray:none;stroke-opacity:1"
             d="m -609.467,-1382.676 9.302,-9.303 -32.56,9.302 32.561,9.303 z" />
        </g>
        <path
           inkscape:connector-curvature="0"
           id="path15596"
           style="fill:none;stroke:#000000;stroke-width:3.20000005;stroke-linecap:butt;stroke-linejoin:miter;stroke-miterlimit:4;stroke-dasharray:none;stroke-opacity:1"
           d="m 1474.961,58.426 691.754,3.23" />
        <path
           inkscape:connector-curvature="0"
           id="path15598"
           style="fill:none;stroke:#000000;stroke-width:2.4000001;stroke-linecap:butt;stroke-linejoin:miter;stroke-miterlimit:4;stroke-dasharray:none;stroke-opacity:1"
           d="M 1698.004,178.028 V 61.656" />
        <path
           inkscape:connector-curvature="0"
           id="path15600"
           style="fill:none;stroke:#000000;stroke-width:2.4000001;stroke-linecap:butt;stroke-linejoin:miter;stroke-miterlimit:4;stroke-dasharray:none;stroke-opacity:1"
           d="M 1908.016,179.66 V 63.289" />
        <text
           id="text15604"
           style="font-variant:normal;font-weight:bold;font-size:44.79999924px;font-family:'Bitstream Vera Sans';-inkscape-font-specification:BitstreamVeraSans-Bold;writing-mode:lr-tb;fill:#000000;fill-opacity:1;fill-rule:nonzero;stroke:none"
           transform="matrix(1,0,0,-1,1725.6582,11.604557)">
          <tspan
             id="tspan15602"
             sodipodi:role="line"
             y="0"
             x="0 16.6656 48.518398 80.5504 112.4032 133.8176">Entradas</tspan>
        </text>
        <path
           inkscape:connector-curvature="0"
           id="path15606"
           style="fill:#080808;fill-opacity:1;fill-rule:nonzero;stroke:none"
           d="m 2168.465,386.117 h 38.828 v -50.605 h -38.828 z" />
        <path
           inkscape:connector-curvature="0"
           id="path15608"
           style="fill:none;stroke:#000000;stroke-width:2;stroke-linecap:butt;stroke-linejoin:miter;stroke-miterlimit:4;stroke-dasharray:none;stroke-opacity:1"
           d="M 1604.262,662.903 1468.496,763.11 h -168.09 l 16.164,-504.27 h 87.278 l -3.235,51.719 v 35.558" />
        <path
           inkscape:connector-curvature="0"
           id="path15610"
           style="fill:#000000;fill-opacity:1;fill-rule:evenodd;stroke:none"
           d="m 1391.738,324.735 8.84,24.039 8.84,-24.039 c -5.219,3.843 -12.359,3.82 -17.68,0 z" />
        <path
           inkscape:connector-curvature="0"
           id="path15612"
           style="fill:none;stroke:#000000;stroke-width:2;stroke-linecap:butt;stroke-linejoin:miter;stroke-miterlimit:4;stroke-dasharray:none;stroke-opacity:1"
           d="m 1977.629,675.895 135.766,96.976 168.089,3.231 V 233.047 l -90.511,6.465 -3.231,51.719 v 35.558" />
        <path
           inkscape:connector-curvature="0"
           id="path15614"
           style="fill:#000000;fill-opacity:1;fill-rule:evenodd;stroke:none"
           d="m 2178.867,305.406 8.84,24.036 8.84,-24.036 c -5.219,3.84 -12.359,3.817 -17.68,0 z" />
        <path
           inkscape:connector-curvature="0"
           id="path15616"
           style="fill:none;stroke:#000000;stroke-width:3.20000005;stroke-linecap:butt;stroke-linejoin:miter;stroke-miterlimit:4;stroke-dasharray:none;stroke-opacity:1"
           d="m 1411.719,396.239 559.219,142.226" />
        <g
           transform="matrix(-1,-0.254335,-0.254335,1,0,1210.8479)"
           id="g15618">
          <path
             inkscape:connector-curvature="0"
             id="path15620"
             style="fill:#000000;fill-opacity:1;fill-rule:evenodd;stroke:#000000;stroke-width:3.1012671;stroke-linecap:butt;stroke-linejoin:miter;stroke-miterlimit:4;stroke-dasharray:none;stroke-opacity:1"
             d="m -1659.559,-1102.353 12.405,-12.404 -43.416,12.403 43.419,12.406 z" />
        </g>
        <path
           inkscape:connector-curvature="0"
           id="path15622"
           style="fill:none;stroke:#000000;stroke-width:3.20000005;stroke-linecap:butt;stroke-linejoin:miter;stroke-miterlimit:4;stroke-dasharray:none;stroke-opacity:1"
           d="m 1390.754,404.301 142.23,184.254" />
        <g
           transform="matrix(-0.77193,-1,-1,0.77193,0,1210.8479)"
           id="g15624">
          <path
             inkscape:connector-curvature="0"
             id="path15626"
             style="fill:#000000;fill-opacity:1;fill-rule:evenodd;stroke:#000000;stroke-width:2.53308892;stroke-linecap:butt;stroke-linejoin:miter;stroke-miterlimit:4;stroke-dasharray:none;stroke-opacity:1"
             d="m -326.239,-1261.596 10.131,-10.133 -35.463,10.133 35.465,10.131 z" />
        </g>
        <path
           inkscape:connector-curvature="0"
           id="path15628"
           style="fill:none;stroke:#000000;stroke-width:3.20000005;stroke-linecap:butt;stroke-linejoin:miter;stroke-miterlimit:4;stroke-dasharray:none;stroke-opacity:1"
           d="M 2161.688,384.906 1647.723,543.297" />
        <g
           transform="matrix(1,-0.308176,-0.308176,-1,0,1210.8479)"
           id="g15630">
          <path
             inkscape:connector-curvature="0"
             id="path15632"
             style="fill:#000000;fill-opacity:1;fill-rule:evenodd;stroke:#000000;stroke-width:3.0580771;stroke-linecap:butt;stroke-linejoin:miter;stroke-miterlimit:4;stroke-dasharray:none;stroke-opacity:1"
             d="m 1723.265,145.904 12.234,-12.232 -42.812,12.233 42.813,12.232 z" />
        </g>
        <path
           inkscape:connector-curvature="0"
           id="path15634"
           style="fill:none;stroke:#000000;stroke-width:3.20000005;stroke-linecap:butt;stroke-linejoin:miter;stroke-miterlimit:4;stroke-dasharray:none;stroke-opacity:1"
           d="M 2187.547,397.836 2058.246,591.785" />
        <g
           transform="matrix(0.666667,-1,-1,-0.666667,0,1210.8479)"
           id="g15636">
          <path
             inkscape:connector-curvature="0"
             id="path15638"
             style="fill:#000000;fill-opacity:1;fill-rule:evenodd;stroke:#000000;stroke-width:2.66256094;stroke-linecap:butt;stroke-linejoin:miter;stroke-miterlimit:4;stroke-dasharray:none;stroke-opacity:1"
             d="m 1405.167,-1139.218 10.65,-10.65 -37.275,10.65 37.276,10.648 z" />
        </g>
        <text
           id="text15642"
           style="font-variant:normal;font-weight:bold;font-size:44.79999924px;font-family:'Bitstream Vera Sans';-inkscape-font-specification:BitstreamVeraSans-Bold;writing-mode:lr-tb;fill:#000000;fill-opacity:1;fill-rule:nonzero;stroke:none"
           transform="matrix(1,0,0,-1,1680.4034,1165.6028)">
          <tspan
             id="tspan15640"
             sodipodi:role="line"
             y="0"
             x="0 38.079998 69.9328 91.347198 123.3792 155.23199">Salida</tspan>
        </text>
        <path
           inkscape:connector-curvature="0"
           id="path15644"
           style="fill:none;stroke:#000000;stroke-width:3.20000005;stroke-linecap:butt;stroke-linejoin:miter;stroke-miterlimit:4;stroke-dasharray:none;stroke-opacity:1"
           d="m 1765.887,1033.071 3.23,116.367" />
        <g
           transform="matrix(0.0277778,1,1,-0.0277778,0,1210.8479)"
           id="g15646">
          <path
             inkscape:connector-curvature="0"
             id="path15648"
             style="fill:#000000;fill-opacity:1;fill-rule:evenodd;stroke:#000000;stroke-width:1.599383;stroke-linecap:butt;stroke-linejoin:miter;stroke-miterlimit:4;stroke-dasharray:none;stroke-opacity:1"
             d="m -5.989,1769.459 c 0,3.532 -2.865,6.396 -6.396,6.397 -3.532,0 -6.396,-2.866 -6.397,-6.397 0,-3.531 2.865,-6.4 6.397,-6.396 3.531,0 6.4,2.865 6.396,6.396 z" />
        </g>
        <text
           id="text15652"
           style="font-variant:normal;font-weight:bold;font-size:44.79999924px;font-family:'Bitstream Vera Sans';-inkscape-font-specification:BitstreamVeraSans-Bold;writing-mode:lr-tb;fill:#000000;fill-opacity:1;fill-rule:nonzero;stroke:none"
           transform="matrix(1,0,0,-1,2081.2319,195.85641)">
          <tspan
             id="tspan15650"
             sodipodi:role="line"
             y="0"
             x="0 26.521599 57.299198 89.152 110.5664 140.9408 169.83679 191.25119 206.8416 238.6944 270.54718 285.8688">Unidades de Contexto</tspan>
        </text>
        <text
           id="text15656"
           style="font-variant:normal;font-weight:bold;font-size:32px;font-family:'Bitstream Vera Sans';-inkscape-font-specification:BitstreamVeraSans-Bold;writing-mode:lr-tb;fill:#000000;fill-opacity:1;fill-rule:nonzero;stroke:none"
           transform="matrix(1,0,0,-1,2102.3243,588.61998)">
          <tspan
             id="tspan15654"
             sodipodi:role="line"
             y="0"
             x="0 26.752001 37.695999 60.576 83.456001 105.152 127.904 139.03999 161.696 183.392 206.144 221.92 243.90401 266.65601">Neuronas de Capa oculta</tspan>
        </text>
        <text
           id="text15660"
           style="font-variant:normal;font-weight:bold;font-size:87.12982941px;font-family:'Bitstream Vera Sans';-inkscape-font-specification:BitstreamVeraSans-Bold;writing-mode:lr-tb;fill:#000000;fill-opacity:1;fill-rule:nonzero;stroke:none"
           transform="matrix(0.9534678,0,0,-1,-3.569647,1144.7347)">
          <tspan
             id="tspan15658"
             sodipodi:role="line"
             y="0"
             x="0 58.725506">a)</tspan>
        </text>
        <text
           id="text15664"
           style="font-variant:normal;font-weight:bold;font-size:87.12982941px;font-family:'Bitstream Vera Sans';-inkscape-font-specification:BitstreamVeraSans-Bold;writing-mode:lr-tb;fill:#000000;fill-opacity:1;fill-rule:nonzero;stroke:none"
           transform="matrix(0.95346778,0,0,-1,1271.8589,1140.6205)">
          <tspan
             id="tspan15662"
             sodipodi:role="line"
             y="0"
             x="0 62.297829">b)</tspan>
        </text>
      </g>
    </g>
  </g>
</svg>
